<?xml version="1.0" encoding="UTF-8"?>
<svg version="1.1" xmlns="http://www.w3.org/2000/svg" width="2000" height="2000">
<path d="M0 0 C660 0 1320 0 2000 0 C2000 660 2000 1320 2000 2000 C1340 2000 680 2000 0 2000 C0 1340 0 680 0 0 Z " fill="#000000" transform="translate(0,0)"/>
<path d="M0 0 C1.1093692 -0.00590149 2.2187384 -0.01180298 3.36172485 -0.0178833 C33.3146581 -0.12579587 63.22210207 4.07776941 92 12.4375 C92.65419922 12.62393066 93.30839844 12.81036133 93.98242188 13.00244141 C98.69936929 14.35789994 103.35575285 15.85450596 108 17.4375 C108.845625 17.72544434 109.69125 18.01338867 110.5625 18.31005859 C148.43968897 31.41777189 182.95344655 51.15517152 214 76.4375 C214.52529297 76.85837891 215.05058594 77.27925781 215.59179688 77.71289062 C224.16823041 84.6143223 232.01448727 92.24482237 239.8125 100 C240.54471268 100.72431213 240.54471268 100.72431213 241.29171753 101.46325684 C247.99180591 108.10737133 254.13023546 115.04829623 260 122.4375 C261.00046016 123.64609011 262.00389648 124.85222966 263.01171875 126.0546875 C275.17868338 140.77702634 285.5455181 156.89680273 294.91796875 173.52001953 C295.92257888 175.30030111 296.94494549 177.0705308 297.96875 178.83984375 C314.86686023 209.06945487 325.24787699 242.6182884 332 276.4375 C332.2259082 277.53433105 332.45181641 278.63116211 332.68457031 279.76123047 C336.31720836 298.24527581 336.36193315 316.72744903 336.375 335.5 C336.37708466 336.72320953 336.37916931 337.94641907 336.38131714 339.20669556 C336.37738547 359.59718189 335.36629261 379.53461948 331.375 399.5625 C331.24816833 400.20782684 331.12133667 400.85315369 330.99066162 401.51803589 C328.23609985 415.43024395 324.44501255 428.97254103 320 442.4375 C319.68305176 443.39946289 319.36610352 444.36142578 319.03955078 445.35253906 C304.1246028 489.87315622 279.71835507 529.95847329 248 564.4375 C246.49934876 566.12442089 244.99935807 567.81192962 243.5 569.5 C236.76136478 576.97695525 229.6615719 583.91588516 222 590.4375 C221.08992188 591.23671875 220.17984375 592.0359375 219.2421875 592.859375 C175.11012623 631.33311608 118.89854374 658.12897242 61.27856445 668.01660156 C59.04688462 668.42883943 56.8495616 668.92200564 54.640625 669.44140625 C-24.46271285 687.27246332 -114.65339868 663.2509994 -181.64453125 620.95703125 C-190.05288683 615.51024308 -198.09468268 609.5862987 -206 603.4375 C-206.55606934 603.00598633 -207.11213867 602.57447266 -207.68505859 602.12988281 C-214.15516579 597.06813497 -220.20803732 591.58144786 -226.22265625 585.99609375 C-228.48930455 583.9079719 -230.78332891 581.87743504 -233.125 579.875 C-240.67992076 573.30960109 -247.52964557 566.05992582 -254 558.4375 C-254.79792969 557.52871094 -255.59585938 556.61992188 -256.41796875 555.68359375 C-283.73004272 524.36420701 -304.04579639 487.19625583 -318.00097656 448.20483398 C-318.65939137 446.38099923 -319.33291061 444.56253651 -320.02246094 442.75024414 C-322.70205051 435.6555095 -324.69112819 428.48650888 -326.5 421.125 C-326.80188232 419.90022949 -327.10376465 418.67545898 -327.41479492 417.41357422 C-334.0380428 390.07778554 -336.44704241 363.35238403 -336.4375 335.25 C-336.43790283 334.02482666 -336.43830566 332.79965332 -336.4387207 331.53735352 C-336.40017605 311.09938185 -335.25308082 291.44115679 -331 271.4375 C-330.85715576 270.76064148 -330.71431152 270.08378296 -330.56713867 269.38641357 C-319.51288959 217.55632732 -297.47243538 168.70246001 -264 127.4375 C-263.27941406 126.52613281 -262.55882812 125.61476563 -261.81640625 124.67578125 C-247.78655482 107.14471912 -231.76683786 90.18837165 -214 76.4375 C-212.90990773 75.53860457 -211.82285855 74.6360107 -210.73828125 73.73046875 C-170.25904448 40.16068636 -120.28887922 17.35054869 -69 6.4375 C-68.25886963 6.27975098 -67.51773926 6.12200195 -66.75415039 5.95947266 C-44.52258997 1.36883191 -22.65918617 0.03383126 0 0 Z " fill="#000000" transform="translate(1000,484.5625)"/>
<path d="M0 0 C1.1093692 -0.00590149 2.2187384 -0.01180298 3.36172485 -0.0178833 C33.3146581 -0.12579587 63.22210207 4.07776941 92 12.4375 C92.65419922 12.62393066 93.30839844 12.81036133 93.98242188 13.00244141 C98.69936929 14.35789994 103.35575285 15.85450596 108 17.4375 C108.845625 17.72544434 109.69125 18.01338867 110.5625 18.31005859 C148.43968897 31.41777189 182.95344655 51.15517152 214 76.4375 C214.52529297 76.85837891 215.05058594 77.27925781 215.59179688 77.71289062 C224.16823041 84.6143223 232.01448727 92.24482237 239.8125 100 C240.54471268 100.72431213 240.54471268 100.72431213 241.29171753 101.46325684 C247.99180591 108.10737133 254.13023546 115.04829623 260 122.4375 C261.00046016 123.64609011 262.00389648 124.85222966 263.01171875 126.0546875 C275.17868338 140.77702634 285.5455181 156.89680273 294.91796875 173.52001953 C295.92257888 175.30030111 296.94494549 177.0705308 297.96875 178.83984375 C314.86686023 209.06945487 325.24787699 242.6182884 332 276.4375 C332.2259082 277.53433105 332.45181641 278.63116211 332.68457031 279.76123047 C336.31720836 298.24527581 336.36193315 316.72744903 336.375 335.5 C336.37708466 336.72320953 336.37916931 337.94641907 336.38131714 339.20669556 C336.37738547 359.59718189 335.36629261 379.53461948 331.375 399.5625 C331.24816833 400.20782684 331.12133667 400.85315369 330.99066162 401.51803589 C328.23609985 415.43024395 324.44501255 428.97254103 320 442.4375 C319.68305176 443.39946289 319.36610352 444.36142578 319.03955078 445.35253906 C304.1246028 489.87315622 279.71835507 529.95847329 248 564.4375 C246.49934876 566.12442089 244.99935807 567.81192962 243.5 569.5 C236.76136478 576.97695525 229.6615719 583.91588516 222 590.4375 C221.08992188 591.23671875 220.17984375 592.0359375 219.2421875 592.859375 C175.11012623 631.33311608 118.89854374 658.12897242 61.27856445 668.01660156 C59.04688462 668.42883943 56.8495616 668.92200564 54.640625 669.44140625 C-24.46271285 687.27246332 -114.65339868 663.2509994 -181.64453125 620.95703125 C-190.05288683 615.51024308 -198.09468268 609.5862987 -206 603.4375 C-206.55606934 603.00598633 -207.11213867 602.57447266 -207.68505859 602.12988281 C-214.15516579 597.06813497 -220.20803732 591.58144786 -226.22265625 585.99609375 C-228.48930455 583.9079719 -230.78332891 581.87743504 -233.125 579.875 C-240.67992076 573.30960109 -247.52964557 566.05992582 -254 558.4375 C-254.79792969 557.52871094 -255.59585938 556.61992188 -256.41796875 555.68359375 C-283.73004272 524.36420701 -304.04579639 487.19625583 -318.00097656 448.20483398 C-318.65939137 446.38099923 -319.33291061 444.56253651 -320.02246094 442.75024414 C-322.70205051 435.6555095 -324.69112819 428.48650888 -326.5 421.125 C-326.80188232 419.90022949 -327.10376465 418.67545898 -327.41479492 417.41357422 C-334.0380428 390.07778554 -336.44704241 363.35238403 -336.4375 335.25 C-336.43790283 334.02482666 -336.43830566 332.79965332 -336.4387207 331.53735352 C-336.40017605 311.09938185 -335.25308082 291.44115679 -331 271.4375 C-330.85715576 270.76064148 -330.71431152 270.08378296 -330.56713867 269.38641357 C-319.51288959 217.55632732 -297.47243538 168.70246001 -264 127.4375 C-263.27941406 126.52613281 -262.55882812 125.61476563 -261.81640625 124.67578125 C-247.78655482 107.14471912 -231.76683786 90.18837165 -214 76.4375 C-212.90990773 75.53860457 -211.82285855 74.6360107 -210.73828125 73.73046875 C-170.25904448 40.16068636 -120.28887922 17.35054869 -69 6.4375 C-68.25886963 6.27975098 -67.51773926 6.12200195 -66.75415039 5.95947266 C-44.52258997 1.36883191 -22.65918617 0.03383126 0 0 Z M-179.16015625 70.12304688 C-181.21972735 71.59448143 -183.29731728 73.03863911 -185.375 74.484375 C-195.45798929 81.5652642 -204.87808972 89.16166527 -214 97.4375 C-214.87229248 98.22519775 -214.87229248 98.22519775 -215.76220703 99.02880859 C-225.3344012 107.69396558 -234.7044124 116.52057364 -243 126.4375 C-243.45358887 126.97729492 -243.90717773 127.51708984 -244.37451172 128.07324219 C-267.73543439 155.98092163 -286.94030074 187.39776196 -300 221.4375 C-300.32419922 222.27055664 -300.64839844 223.10361328 -300.98242188 223.96191406 C-322.73390899 280.58786151 -328.03537684 346.24648804 -314 405.4375 C-313.83306641 406.17081543 -313.66613281 406.90413086 -313.49414062 407.65966797 C-302.85599633 453.8092422 -282.34993367 497.26461615 -253 534.4375 C-251.93072266 535.79488281 -251.93072266 535.79488281 -250.83984375 537.1796875 C-236.53894799 554.98644659 -220.24826587 572.64935498 -202 586.4375 C-200.75380009 587.42139603 -199.5091356 588.40723849 -198.265625 589.39453125 C-134.18605141 639.87087468 -49.42044292 666.02769334 32.08862305 656.42675781 C34.39597711 656.11853033 36.69739991 655.77939848 39 655.4375 C40.0115918 655.29795898 41.02318359 655.15841797 42.06542969 655.01464844 C55.2593369 653.19386605 68.16935057 651.03487834 81 647.4375 C82.0209375 647.169375 83.041875 646.90125 84.09375 646.625 C89.00046215 645.33092207 93.80695882 643.85807804 98.61499023 642.23852539 C100.87595225 641.47916247 103.14245858 640.73894667 105.41015625 640 C160.46827811 621.70252442 214.82897419 584.97257915 250 538.4375 C250.74378906 537.51066406 251.48757813 536.58382812 252.25390625 535.62890625 C264.42460659 520.29343311 274.93268611 503.77491279 284 486.4375 C284.52883789 485.43541504 284.52883789 485.43541504 285.06835938 484.41308594 C299.77400323 456.3951097 309.9830787 426.91796378 315.546875 395.80932617 C315.976973 393.55803198 316.48192853 391.33899308 317.01171875 389.109375 C320.92918065 371.71508532 321.29441626 353.50978029 321.3125 335.75 C321.31590393 334.96855621 321.31930786 334.18711243 321.32281494 333.38198853 C321.35139816 321.94433905 320.50308799 310.77265263 319 299.4375 C318.84877686 298.28354736 318.69755371 297.12959473 318.54174805 295.94067383 C313.653271 260.36448803 304.11767652 226.59553577 288 194.4375 C287.37593262 193.17510498 287.37593262 193.17510498 286.73925781 191.88720703 C271.15826543 160.5460594 250.03779452 133.6635926 226 108.4375 C225.24847656 107.6434375 224.49695312 106.849375 223.72265625 106.03125 C219.41762147 101.59415894 214.77741491 97.69800565 209.953125 93.8359375 C207.45575832 91.80765292 205.02866399 89.72126866 202.61157227 87.59887695 C188.77733851 75.55251895 173.36860241 65.54761818 157.32373047 56.71679688 C155.79774234 55.87668574 154.2757647 55.02924015 152.75830078 54.17382812 C132.39386603 42.70569487 110.37065834 34.12526329 88 27.4375 C86.86594727 27.09428711 86.86594727 27.09428711 85.70898438 26.74414062 C62.29145515 19.8303939 36.37598874 16.44084013 12 16.1640625 C10.97822159 16.15148911 9.95644318 16.13891571 8.90370178 16.1259613 C-57.68371688 15.46647423 -124.11451624 30.74232256 -179.16015625 70.12304688 Z " fill="#FAFAFA" transform="translate(1000,484.5625)"/>
<path d="M0 0 C64.59465479 0 64.59465479 0 73.85546875 8.75390625 C80.09344545 16.3781 81.60924035 25.09804116 81.34765625 34.75390625 C80.25323667 44.97258791 75.80199937 51.92873966 68.125 58.4375 C67.073125 59.2109375 67.073125 59.2109375 66 60 C66.51949219 60.23074219 67.03898437 60.46148438 67.57421875 60.69921875 C74.727464 64.04445174 80.41716536 68.98245026 84.08984375 76.1171875 C86.92659961 85.10227689 86.09252219 97.20912245 82.3046875 105.73828125 C77.34247615 114.34043805 70.23555373 117.07842614 61 120 C41.27111868 124.93222033 20.33606539 121 0 121 C0 81.07 0 41.14 0 0 Z " fill="#FAFAFA" transform="translate(1563,1255)"/>
<path d="M0 0 C1.48876953 1.36010742 1.48876953 1.36010742 2.8828125 3.10546875 C3.40488281 3.75177246 3.92695312 4.39807617 4.46484375 5.06396484 C5.28662109 6.11511475 5.28662109 6.11511475 6.125 7.1875 C6.70121094 7.91146973 7.27742187 8.63543945 7.87109375 9.38134766 C12.68363091 15.47838406 17.22004853 21.74615115 21.66943359 28.11035156 C24.18361336 31.68094815 26.75163175 35.21282207 29.3125 38.75 C30.41932085 40.28121385 31.52609129 41.81246414 32.6328125 43.34375 C33.75516235 44.89586659 34.87755834 46.44794981 36 48 C50.96814157 68.69711758 50.96814157 68.69711758 55.51733398 75.14526367 C57.43976035 77.86240487 59.40632433 80.51643758 61.46484375 83.1328125 C62.59599609 84.58300781 62.59599609 84.58300781 63.75 86.0625 C64.42546875 86.89910156 65.1009375 87.73570312 65.796875 88.59765625 C67 91 67 91 66.5390625 93.23828125 C64.30528338 97.24661078 62.00692534 101.20271523 59.625 105.125 C58.82316284 106.45289551 58.82316284 106.45289551 58.00512695 107.80761719 C53.49079767 115.25450666 48.85787088 122.62299499 44.1875 129.97265625 C40.65940675 135.52675042 37.1721272 141.10606444 33.6875 146.6875 C33.06319092 147.6870874 32.43888184 148.6866748 31.7956543 149.71655273 C29.86338853 152.81079747 27.93162477 155.90535508 26 159 C23.33389721 163.27118573 20.66712776 167.54195425 18 171.8125 C17.40147217 172.7718042 16.80294434 173.7311084 16.1862793 174.71948242 C15.03767627 176.55856216 13.88710199 178.39641249 12.734375 180.23291016 C11.5095142 182.18710108 10.29140246 184.14553002 9.078125 186.10693359 C8.45421875 187.1067627 7.8303125 188.1065918 7.1875 189.13671875 C6.62417969 190.04510498 6.06085937 190.95349121 5.48046875 191.8894043 C4 194 4 194 2 195 C1.90853164 194.44934624 1.81706327 193.89869247 1.72282314 193.33135223 C-0.5392086 179.71431439 -2.80320393 166.09760412 -5.06919193 152.48122406 C-6.16511717 145.8955106 -7.26041535 139.30969426 -8.35424805 132.72363281 C-14.91379993 93.21436416 -14.91379993 93.21436416 -21.75868225 53.75378418 C-29 12.88391925 -29 12.88391925 -29 6 C-25.58364488 5.0197441 -22.16686255 4.04098554 -18.75 3.0625 C-17.78191406 2.78470703 -16.81382812 2.50691406 -15.81640625 2.22070312 C-14.88183594 1.95322266 -13.94726562 1.68574219 -12.984375 1.41015625 C-12.12553711 1.16402588 -11.26669922 0.91789551 -10.38183594 0.66430664 C-9.59583008 0.44508545 -8.80982422 0.22586426 -8 0 C-6.9795459 -0.32206421 -6.9795459 -0.32206421 -5.93847656 -0.65063477 C-3.57759634 -1.07612842 -2.23174286 -0.87480029 0 0 Z " fill="#FDFDFD" transform="translate(888,794)"/>
<path d="M0 0 C5.24178488 4.32987643 9.90627291 8.93175821 14.5 13.9375 C18.75035414 18.54278062 23.04386703 23.07180062 27.49511719 27.48364258 C29.21035797 29.21196193 30.80905418 31.01077878 32.375 32.875 C34.96634205 35.8846753 37.67254783 38.71088616 40.5 41.5 C43.26560408 44.22829407 45.91287031 46.98516834 48.4375 49.9375 C51.15619248 53.1103592 54.02751675 56.06338382 57 59 C60.58558699 62.54232199 63.94891662 66.17555661 67.22265625 70.00390625 C69.23268777 72.26132626 71.34832953 74.37735713 73.5 76.5 C76.26560408 79.22829407 78.91287031 81.98516834 81.4375 84.9375 C84.15619248 88.1103592 87.02751675 91.06338382 90 94 C93.58558699 97.54232199 96.94891662 101.17555661 100.22265625 105.00390625 C102.23268777 107.26132626 104.34832953 109.37735713 106.5 111.5 C112.07140215 117.00496295 117.17797729 122.82781093 122 129 C112.08681803 126.48157283 102.45297592 123.20038288 92.77734375 119.91210938 C84.36755293 117.05906819 75.94198053 114.35333369 67.41122437 111.88409424 C59.38526794 109.55186315 51.44455958 106.96866224 43.5 104.375 C41.8933401 103.85261093 40.28665003 103.33031462 38.67993164 102.80810547 C27.21732623 99.0767302 15.78345772 95.26214684 4.35552979 91.42614746 C-4.46892589 88.46709565 -13.30738564 85.58898623 -22.25219727 83.01220703 C-28.86871726 81.09856354 -35.38641437 78.89689207 -41.91333008 76.70092773 C-45.50118332 75.49574151 -49.09260366 74.30126865 -52.68359375 73.10546875 C-54.13868815 72.62049154 -55.59376628 72.13546549 -57.04882812 71.65039062 C-58.12886108 71.29037964 -58.12886108 71.29037964 -59.23071289 70.9230957 C-65.15380859 68.94873047 -71.0769043 66.97436523 -77 65 C-73.43052117 61.39514999 -69.76502542 58.0033907 -65.875 54.75 C-65.30587891 54.27111328 -64.73675781 53.79222656 -64.15039062 53.29882812 C-59.73828729 49.59502231 -55.28019511 45.94899602 -50.8125 42.3125 C-47.68200334 39.73853608 -44.58827539 37.12430914 -41.5 34.5 C-36.65040619 30.37898366 -31.74839194 26.33008646 -26.8125 22.3125 C-23.12949033 19.2842476 -19.49772974 16.19772733 -15.86450195 13.11010742 C-10.6321273 8.6711119 -5.32776708 4.32413961 0 0 Z " fill="#FCFCFC" transform="translate(1079,840)"/>
<path d="M0 0 C0.66 0 1.32 0 2 0 C3.45956474 1.86360734 4.79690385 3.73212805 6.125 5.6875 C10.5060261 11.98214383 15.0804065 18.10428405 19.75 24.1875 C24.90164079 30.90999867 29.99697461 37.66614434 35 44.5 C39.94181129 51.24968764 44.97377678 57.92292779 50.0625 64.5625 C55.52195656 71.6889662 60.84714321 78.89191237 66.06884766 86.19384766 C70.90970043 92.93598658 75.93963711 99.52600271 80.98828125 106.11328125 C85.96706775 112.61813258 90.84728411 119.18823777 95.68212891 125.80053711 C100.98597671 133.0331259 106.43767912 140.15029986 111.93554688 147.23632812 C112.58201172 148.07615234 113.22847656 148.91597656 113.89453125 149.78125 C114.47050049 150.52439453 115.04646973 151.26753906 115.63989258 152.03320312 C117 154 117 154 118 157 C117.47486877 158.76542664 117.47486877 158.76542664 116.55297852 160.73706055 C116.2125502 161.47760178 115.87212189 162.21814301 115.52137756 162.98112488 C115.14436203 163.77497086 114.7673465 164.56881683 114.37890625 165.38671875 C114.00015854 166.20372757 113.62141083 167.02073639 113.23118591 167.86250305 C112.01742489 170.47520472 110.79017 173.08130936 109.5625 175.6875 C108.73803682 177.45596301 107.91445769 179.22483846 107.09179688 180.99414062 C105.07143131 185.33428231 103.03893993 189.66855521 101 194 C89.91696109 192.67613033 78.90842196 191.09515425 67.90039062 189.23632812 C66.81564453 189.06166016 65.73089844 188.88699219 64.61328125 188.70703125 C63.65204346 188.5469458 62.69080566 188.38686035 61.70043945 188.22192383 C57.96075524 187.91459421 55.12130543 188.18879507 52.05078125 190.41015625 C51.47714844 190.95542969 50.90351562 191.50070312 50.3125 192.0625 C47.19529412 195 47.19529412 195 45 195 C40.81014888 178.05022232 36.74003105 161.09054283 33.07467651 144.01904297 C30.87731975 133.80404961 28.49753746 123.64558273 26 113.5 C23.32040616 102.61462174 20.79535675 91.70961509 18.4375 80.75 C15.97539042 69.30965193 13.34069453 57.92159729 10.56542969 46.55249023 C8.55540435 38.31719106 6.59585344 30.07197205 4.6875 21.8125 C4.44507568 20.76787598 4.20265137 19.72325195 3.95288086 18.64697266 C2.52657353 12.45102512 1.20819041 6.24217378 0 0 Z " fill="#FCFCFC" transform="translate(928,648)"/>
<path d="M0 0 C0.33 -2.31 0.66 -4.62 1 -7 C5.95 -7 10.9 -7 16 -7 C16.09299874 5.68341427 16.16391616 18.36674637 16.20724869 31.05043316 C16.22805429 36.94105325 16.25624294 42.83143872 16.30175781 48.72192383 C16.34546686 54.41483148 16.36918986 60.10751455 16.37950897 65.80057716 C16.38685555 67.96412499 16.40120078 70.12766162 16.42292023 72.2911129 C16.70627798 101.70669373 16.70627798 101.70669373 6 113 C-3.92359421 122.66244699 -18.57521388 121.41034695 -31.3984375 121.296875 C-39.6248266 121.06725776 -47.56714517 119.71642742 -55 116 C-55 111.05 -55 106.1 -55 101 C-52.91666667 101.71614583 -50.83333333 102.43229167 -48.75 103.1484375 C-41.29046676 105.45834978 -34.86194569 106.33919215 -27.0625 106.3125 C-26.12470703 106.32861328 -25.18691406 106.34472656 -24.22070312 106.36132812 C-17.72323322 106.36584339 -10.68544925 105.95685122 -5.41064453 101.72485352 C0.33155397 95.44295907 0.28306021 88.05669896 0.125 80.0625 C0.11597656 79.18787109 0.10695313 78.31324219 0.09765625 77.41210938 C0.0742957 75.27461936 0.03843247 73.13727214 0 71 C-0.53367187 71.38671875 -1.06734375 71.7734375 -1.6171875 72.171875 C-12.10952894 79.5056223 -21.03369346 82.6296258 -33.890625 80.52734375 C-43.52935576 78.27920403 -51.40981172 73.22277694 -57 65 C-64.94019283 51.7222331 -66.40287296 35.09713813 -63.3125 19.99609375 C-59.99180035 8.27679122 -53.41835403 -0.42271772 -43.0625 -6.8125 C-26.85108186 -13.0985601 -13.73770591 -9.95485936 0 0 Z " fill="#FAFAFA" transform="translate(461,1295)"/>
<path d="M0 0 C10.83382581 2.73902235 21.43000878 6.26796996 32.0625 9.6875 C34.2035906 10.37417554 36.34470462 11.06077807 38.48583984 11.74731445 C61.48409851 19.12946773 84.4563092 26.5928354 107.42675304 34.06101036 C110.54723701 35.07544551 113.66792687 36.08924644 116.78863335 37.10299683 C118.92002491 37.79568823 121.0510915 38.48937231 123.18214417 39.18310547 C130.5405426 41.57523238 137.91189356 43.91973569 145.29995918 46.21861839 C151.09051879 48.02228479 156.86100706 49.88296615 162.625 51.76953125 C163.62337891 52.09539719 164.62175781 52.42126312 165.65039062 52.75700378 C168.76723562 53.77456074 171.88362677 54.79349927 175 55.8125 C177.14319892 56.51246241 179.28642789 57.21233283 181.4296875 57.91210938 C186.62013786 59.60701462 191.81021877 61.30304708 197 63 C197 63.33 197 63.66 197 64 C177.85423967 64.17529573 158.70840331 64.34116986 139.5625 64.5 C138.48878332 64.50892281 138.48878332 64.50892281 137.3933754 64.51802588 C94.4283488 64.87448966 51.4667586 65.09483318 8.5 65.0625 C7.35399952 65.06164398 6.20799904 65.06078796 5.02727127 65.05990601 C-8.64850339 65.0488979 -22.3242528 65.02944941 -36 65 C-34.63797715 61.53616008 -33.15547161 58.27452129 -31.3828125 55 C-30.86420654 54.04077637 -30.34560059 53.08155273 -29.8112793 52.09326172 C-29.25480713 51.07248535 -28.69833496 50.05170898 -28.125 49 C-27.26032104 47.40889404 -27.26032104 47.40889404 -26.37817383 45.78564453 C-21.16272161 36.22623681 -15.78576402 26.76423295 -10.34277344 17.33300781 C-9.05678855 15.09866753 -7.78011088 12.85934428 -6.5078125 10.6171875 C-6.13309814 9.95734863 -5.75838379 9.29750977 -5.37231445 8.61767578 C-4.3896755 6.88600382 -3.40770007 5.1539554 -2.42578125 3.421875 C-1 1 -1 1 0 0 Z " fill="#FDFDFD" transform="translate(999,908)"/>
<path d="M0 0 C5.28 0 10.56 0 16 0 C16 44.55 16 89.1 16 135 C10.72 135 5.44 135 0 135 C-0.33 133.02 -0.66 131.04 -1 129 C-1.94359375 129.59748047 -1.94359375 129.59748047 -2.90625 130.20703125 C-13.50999017 136.7704909 -21.23078873 139.36952726 -34 138 C-44.99010947 135.12133338 -52.77450643 128.86359301 -58.75 119.33203125 C-66.0977633 105.62386034 -66.59749133 85.31493858 -62.375 70.5625 C-58.3554968 59.97968214 -51.67982428 51.40319536 -41.25 46.625 C-31.40175016 42.5510837 -21.97034779 43.20932978 -11.984375 46.63671875 C-8.13547378 48.39492101 -4.58827713 50.7573268 -1 53 C-0.67 35.51 -0.34 18.02 0 0 Z " fill="#F6F6F6" transform="translate(1733,1241)"/>
<path d="M0 0 C0.33 0 0.66 0 1 0 C1.14216156 6.09754247 0.59875211 11.85206109 -0.26171875 17.8828125 C-1.58164472 27.57211473 -2.74937699 37.27389495 -3.83203125 46.9921875 C-3.91094667 47.69975756 -3.9898621 48.40732761 -4.0711689 49.13633919 C-4.5689887 53.60622104 -5.06296817 58.07652075 -5.55566025 62.54697037 C-5.81620947 64.90862312 -6.0777145 67.27016823 -6.33950806 69.63168335 C-8.82009599 92.01197977 -11.22062513 114.39945146 -13.54977417 136.79605103 C-15.84886918 158.88612886 -18.36357443 180.94780412 -21 203 C-24.42288796 200.17971887 -27.59298579 197.54409189 -30.4375 194.125 C-32.81783478 191.36023062 -35.19678385 188.60384357 -37.6875 185.9375 C-38.22761719 185.34839844 -38.76773437 184.75929688 -39.32421875 184.15234375 C-40.92762134 182.77225677 -40.92762134 182.77225677 -42.89941406 183.26391602 C-45.20544795 184.07199275 -46.47315317 184.99960254 -48.28515625 186.625 C-48.89327148 187.16278076 -49.50138672 187.70056152 -50.12792969 188.25463867 C-50.76633789 188.83060791 -51.40474609 189.40657715 -52.0625 190 C-53.40130565 191.18476786 -54.74115787 192.36835408 -56.08203125 193.55078125 C-56.74283691 194.13553223 -57.40364258 194.7202832 -58.08447266 195.32275391 C-63.18254884 199.78665696 -68.35926872 204.23951248 -74 208 C-78.99102218 207.66003182 -83.3129721 205.84276553 -87.875 203.9375 C-88.56335937 203.65583984 -89.25171875 203.37417969 -89.9609375 203.08398438 C-91.64289909 202.39484734 -93.32177697 201.69819202 -95 201 C-93.0961026 194.9008527 -90.83213242 189.1262585 -88.11328125 183.34765625 C-87.5522747 182.14012695 -87.5522747 182.14012695 -86.97993469 180.90820312 C-85.76229665 178.29068144 -84.53763035 175.67652224 -83.3125 173.0625 C-82.45654531 171.22793395 -81.60091801 169.39321512 -80.74560547 167.55834961 C-78.58017162 162.91642553 -76.40844034 158.27747582 -74.23529053 153.63916016 C-72.7149272 150.39095075 -71.19996625 147.14024173 -69.68536377 143.88934326 C-62.83519882 129.19239931 -55.86817912 114.57469214 -48.56518555 100.09619141 C-45.27877609 93.57818827 -42.06770127 87.03187926 -38.9375 80.4375 C-33.74627348 69.50253736 -28.43941755 58.62549116 -23.125 47.75 C-15.36117867 31.85966841 -7.64314611 15.94878342 0 0 Z " fill="#FCFCFC" transform="translate(1122,654)"/>
<path d="M0 0 C0.66 0.33 1.32 0.66 2 1 C2.74036615 3.61305699 3.35744499 6.17512807 3.91796875 8.828125 C4.18472916 10.03909851 4.18472916 10.03909851 4.45687866 11.27453613 C4.84034293 13.018784 5.22005609 14.76385978 5.59646606 16.50964355 C6.59183056 21.12469752 7.61394992 25.73383763 8.6328125 30.34375 C8.83574417 31.26540955 9.03867584 32.18706909 9.24775696 33.13665771 C10.9183026 40.70058154 12.70919853 48.22860373 14.5625 55.75 C17.40278402 67.32898472 20.01607345 78.94953719 22.57791138 90.59240723 C24.63083413 99.91771372 26.73385269 109.22361404 29 118.5 C31.84506199 130.15469438 34.44582916 141.85938047 37.01928711 153.57641602 C38.58606797 160.69997443 40.1769938 167.81359526 41.87890625 174.90625 C42.16443359 176.10258057 42.44996094 177.29891113 42.74414062 178.53149414 C43.27442572 180.73853693 43.81297658 182.94361663 44.36132812 185.14624023 C44.59400391 186.11762939 44.82667969 187.08901855 45.06640625 188.08984375 C45.27209229 188.92378662 45.47777832 189.75772949 45.68969727 190.61694336 C46.04907572 193.37689073 45.79814429 195.33804814 45 198 C43.22816105 199.95281756 41.54544174 201.60713354 39.5625 203.3125 C39.02915039 203.78598877 38.49580078 204.25947754 37.94628906 204.74731445 C33.10672637 209.00598602 28.10213903 213.06051654 23 217 C19.0115363 213.20697826 15.70360135 209.1732872 12.4375 204.75 C11.65814087 203.70271729 11.65814087 203.70271729 10.86303711 202.63427734 C6.68641523 196.99373031 2.62212018 191.27698012 -1.40600586 185.52978516 C-5.81370791 179.2417431 -10.30298297 173.0148183 -14.81225586 166.79931641 C-15.33053955 166.08437012 -15.84882324 165.36942383 -16.3828125 164.6328125 C-17.06947998 163.68752686 -17.06947998 163.68752686 -17.77001953 162.72314453 C-21.27155997 157.8176518 -21.27155997 157.8176518 -20.86328125 153.78125 C-20.78215088 152.94150635 -20.70102051 152.1017627 -20.61743164 151.23657227 C-20.46649048 149.88196899 -20.46649048 149.88196899 -20.3125 148.5 C-20.21509521 147.56019287 -20.11769043 146.62038574 -20.01733398 145.65209961 C-19.18908538 137.99192627 -18.03320913 130.40426325 -16.77734375 122.8046875 C-15.97820714 117.94269688 -15.28543069 113.07008483 -14.625 108.1875 C-14.50358643 107.29087646 -14.38217285 106.39425293 -14.25708008 105.47045898 C-13.5649647 100.31534791 -12.88963344 95.15818804 -12.22402954 89.99958801 C-11.73469538 86.20779745 -11.2428324 82.41633734 -10.75 78.625 C-10.64806335 77.84003143 -10.54612671 77.05506287 -10.44110107 76.24630737 C-8.25579081 59.47622368 -5.81234856 42.74545784 -3.32324219 26.01806641 C-3.17657104 25.02704926 -3.0298999 24.0360321 -2.87878418 23.01498413 C-2.60555875 21.16996812 -2.33041645 19.32523438 -2.05285645 17.48086548 C-1.19284083 11.66724648 -0.53589077 5.85227055 0 0 Z " fill="#FCFCFC" transform="translate(924,650)"/>
<path d="M0 0 C3.60463796 -0.08185469 7.2073693 -0.14091062 10.8125 -0.1875 C12.31973633 -0.22520508 12.31973633 -0.22520508 13.85742188 -0.26367188 C24.06835828 -0.36216965 32.90665252 0.89580247 40.4140625 8.25 C48.14942135 16.78556839 47.27974142 28.03068731 47.1953125 38.87890625 C47.1915749 40.30093689 47.18873146 41.72297012 47.18673706 43.14500427 C47.17915931 46.85872713 47.15956239 50.57228954 47.1373291 54.28594971 C47.11674326 58.08709545 47.10770831 61.88826752 47.09765625 65.68945312 C47.07630993 73.12638314 47.04117683 80.5631485 47 88 C42.05 88 37.1 88 32 88 C31.505 84.535 31.505 84.535 31 81 C30.5153125 81.39832031 30.030625 81.79664063 29.53125 82.20703125 C20.55176999 89.3042741 12.28378128 91.25544406 0.98339844 90.30175781 C-6.54552095 89.15629445 -13.10012344 84.86620171 -17.81640625 79.00390625 C-21.39694215 72.94181082 -22.53270962 68.15330186 -22.4375 61.1875 C-22.42775146 60.39359863 -22.41800293 59.59969727 -22.40795898 58.78173828 C-22.14264061 49.98755854 -20.32939867 43.90234852 -13.9375 37.625 C-4.89025718 30.34594796 4.61798283 28.91238503 16 30 C21.13324759 30.96393563 26.05004105 32.35001368 31 34 C30.85465329 26.20867408 30.85465329 26.20867408 28.4375 18.9375 C22.46964613 14.19382129 15.84811445 13.52193323 8.5 13.3125 C7.67757812 13.27833984 6.85515625 13.24417969 6.0078125 13.20898438 C4.0056545 13.1275012 2.00285432 13.06205425 0 13 C0 8.71 0 4.42 0 0 Z " fill="#FBFBFB" transform="translate(619,1288)"/>
<path d="M0 0 C8.04900933 5.07014636 12.95087701 12.39439002 16.2109375 21.25390625 C17.2734375 26.62890625 17.2734375 26.62890625 17.2734375 43.62890625 C-3.1865625 43.62890625 -23.6465625 43.62890625 -44.7265625 43.62890625 C-43.32698769 53.58700872 -43.32698769 53.58700872 -39.9140625 62.12890625 C-39.43324219 63.08796875 -38.95242188 64.04703125 -38.45703125 65.03515625 C-34.82329746 70.48165565 -29.92262095 73.02489292 -23.7265625 74.62890625 C-20.6707233 75.06370774 -17.68555911 75.15173423 -14.6015625 75.12890625 C-13.36901733 75.12793945 -13.36901733 75.12793945 -12.11157227 75.12695312 C-4.19319431 74.93624149 2.03651947 72.68522156 9.2734375 69.62890625 C9.9334375 69.62890625 10.5934375 69.62890625 11.2734375 69.62890625 C11.94648768 71.23040511 12.61165977 72.83521654 13.2734375 74.44140625 C13.6446875 75.33472656 14.0159375 76.22804688 14.3984375 77.1484375 C15.2734375 79.62890625 15.2734375 79.62890625 15.2734375 82.62890625 C12.73427575 83.61501776 10.1924352 84.59291501 7.6484375 85.56640625 C6.93558594 85.84419922 6.22273437 86.12199219 5.48828125 86.40820312 C-6.78464791 91.08092386 -22.68049715 91.93931049 -35.015625 87.015625 C-47.06491838 80.85208156 -54.21659973 72.30305802 -58.7265625 59.62890625 C-62.2881105 44.34686595 -61.48343802 26.82057612 -53.33984375 13.33203125 C-51.92392349 11.26827898 -50.42723248 9.4632003 -48.7265625 7.62890625 C-48.16453125 7.01402344 -47.6025 6.39914062 -47.0234375 5.765625 C-34.53071676 -6.49088883 -15.26656981 -7.67702866 0 0 Z " fill="#FAFAFA" transform="translate(972.7265625,1289.37109375)"/>
<path d="M0 0 C8.68742623 6.28614821 12.21698416 12.9020636 15.25 23.25 C15.25 29.52 15.25 35.79 15.25 42.25 C-4.88 42.25 -25.01 42.25 -45.75 42.25 C-42.86552958 59.82009949 -42.86552958 59.82009949 -31.75 71.25 C-27.10154531 73.69065432 -22.5738739 73.67189385 -17.4375 73.6875 C-16.12410645 73.69330078 -16.12410645 73.69330078 -14.78417969 73.69921875 C-6.17535062 73.54944572 1.28688442 71.36406754 9.25 68.25 C9.92595315 69.66225926 10.59040059 71.08002905 11.25 72.5 C11.62125 73.28890625 11.9925 74.0778125 12.375 74.890625 C13.25 77.25 13.25 77.25 13.25 81.25 C-1.29624073 87.58984386 -18.25731413 91.8748269 -33.875 86.625 C-44.25171499 82.03097448 -53.15384145 75.10030886 -57.90625 64.55078125 C-63.05652049 50.50675662 -64.2094101 33.21848695 -58.4921875 19.15625 C-52.84800563 7.21777107 -45.87604036 0.30697884 -33.5 -4.625 C-22.1331481 -8.00487809 -9.95985067 -6.19797695 0 0 Z " fill="#FAFAFA" transform="translate(1405.75,1290.75)"/>
<path d="M0 0 C0 4.95 0 9.9 0 15 C-1.01578125 14.59007812 -2.0315625 14.18015625 -3.078125 13.7578125 C-16.42533307 8.48343372 -32.28720689 3.45595275 -46.5625 8.1875 C-51.15690669 10.61000535 -53.97597227 12.95194454 -56.3125 17.625 C-57.54919797 23.69606278 -57.85073237 29.53735367 -55.8125 35.4375 C-49.78847368 43.95422686 -39.17064749 46.44157594 -29.5625 49 C-16.31195669 52.54386316 -4.949785 55.75485513 2.73828125 67.71875 C7.09743388 75.60031389 7.16410999 84.17361377 6 93 C3.86446666 99.71371684 0.53856939 105.54212708 -5 110 C-5.99 110.845625 -6.98 111.69125 -8 112.5625 C-20.89220686 121.17547541 -38.94689657 120.99606934 -53.71875 118.234375 C-57.55321612 117.37679403 -61.27314978 116.24650886 -65 115 C-66.11632813 114.63003906 -67.23265625 114.26007813 -68.3828125 113.87890625 C-75.66245088 111.33754912 -75.66245088 111.33754912 -77 110 C-77.07271741 107.64686445 -77.08370868 105.29166332 -77.0625 102.9375 C-77.05347656 101.64714844 -77.04445313 100.35679688 -77.03515625 99.02734375 C-77.02355469 98.02832031 -77.01195312 97.02929688 -77 96 C-75.03125 96.65625 -75.03125 96.65625 -73.0625 97.3125 C-72.2375 97.58578125 -71.4125 97.8590625 -70.5625 98.140625 C-68.95403261 98.68005004 -67.34917666 99.23049993 -65.75 99.796875 C-56.35987873 103.08341744 -47.37656726 104.36182695 -37.4375 104.375 C-35.97280273 104.41173828 -35.97280273 104.41173828 -34.47851562 104.44921875 C-26.76680813 104.48016875 -20.66192732 102.91076274 -14.5625 98.0625 C-10.03061949 92.08041772 -10.1729607 85.19796841 -11 78 C-14.35386749 71.41204599 -21.24585082 68.48041986 -28 66 C-31.43708048 64.94097336 -34.90289187 63.99930999 -38.375 63.0625 C-52.35815233 59.25883453 -63.89591524 54.88646436 -72.14453125 42.24609375 C-76.14208717 34.08669879 -75.17814458 21.39569621 -72.4375 12.9375 C-68.03453032 2.88227512 -61.08241954 -2.03021901 -51 -6 C-34.32532012 -10.83915535 -15.59274449 -5.86657713 0 0 Z " fill="#F9F9F9" transform="translate(1119,1260)"/>
<path d="M0 0 C1.38457397 0.01800659 1.38457397 0.01800659 2.79711914 0.03637695 C14.70781942 0.28348692 24.46297513 3.13644114 35.5625 7.3125 C35.5625 12.2625 35.5625 17.2125 35.5625 22.3125 C34.54671875 21.90257812 33.5309375 21.49265625 32.484375 21.0703125 C19.13716693 15.79593372 3.27529311 10.76845275 -11 15.5 C-15.59440669 17.92250535 -18.41347227 20.26444454 -20.75 24.9375 C-21.98669797 31.00856278 -22.28823237 36.84985367 -20.25 42.75 C-14.22597368 51.26672686 -3.60814749 53.75407594 6 56.3125 C19.25054331 59.85636316 30.612715 63.06735513 38.30078125 75.03125 C42.91766328 83.37880142 43.11297548 94.01840766 40.83984375 103.24609375 C39.90549402 105.42876497 38.86221197 107.3287291 37.5625 109.3125 C37.211875 109.93125 36.86125 110.55 36.5 111.1875 C31.62662374 119.03905064 23.35593262 123.1913592 14.671875 125.6171875 C0.08489488 128.53011356 -15.44073943 126.9939562 -29.4375 122.3125 C-30.55382812 121.94253906 -31.67015625 121.57257813 -32.8203125 121.19140625 C-40.09995088 118.65004912 -40.09995088 118.65004912 -41.4375 117.3125 C-41.51021741 114.95936445 -41.52120868 112.60416332 -41.5 110.25 C-41.49097656 108.95964844 -41.48195312 107.66929688 -41.47265625 106.33984375 C-41.46105469 105.34082031 -41.44945312 104.34179688 -41.4375 103.3125 C-39.46875 103.96875 -39.46875 103.96875 -37.5 104.625 C-36.675 104.89828125 -35.85 105.1715625 -35 105.453125 C-33.39153261 105.99255004 -31.78667666 106.54299993 -30.1875 107.109375 C-20.79737873 110.39591744 -11.81406726 111.67432695 -1.875 111.6875 C-0.41030273 111.72423828 -0.41030273 111.72423828 1.08398438 111.76171875 C8.79569187 111.79266875 14.90057268 110.22326274 21 105.375 C25.53188051 99.39291772 25.3895393 92.51046841 24.5625 85.3125 C21.20863251 78.72454599 14.31664918 75.79291986 7.5625 73.3125 C4.12542353 72.25347459 0.65966289 71.31159876 -2.8125 70.375 C-14.95158382 67.08001346 -27.25897305 63.4486899 -34.4375 52.3125 C-34.86675781 51.68214844 -35.29601562 51.05179688 -35.73828125 50.40234375 C-40.15121293 42.53185736 -39.41767063 32.15302085 -37.96484375 23.49609375 C-35.54936408 15.17932242 -30.2173853 9.40199607 -23.171875 4.63671875 C-15.59006697 0.96495743 -8.35996869 -0.1701716 0 0 Z " fill="#F9F9F9" transform="translate(292.4375,1252.6875)"/>
<path d="M0 0 C0.33 0 0.66 0 1 0 C4.03554709 14.48447998 7.03972159 28.97479478 9.875 43.5 C10.19730591 45.12591064 10.19730591 45.12591064 10.52612305 46.78466797 C10.81869995 48.29891357 10.81869995 48.29891357 11.1171875 49.84375 C11.28847168 50.72224609 11.45975586 51.60074219 11.63623047 52.50585938 C12.01318907 55.09042924 12.23249125 57.3950103 12 60 C10.09710902 61.99667417 8.34462323 63.57678499 6.1875 65.25 C5.59582031 65.72888672 5.00414062 66.20777344 4.39453125 66.70117188 C3.18130021 67.68138966 1.96300862 68.65537687 0.73974609 69.62304688 C-1.69792397 71.55238439 -4.0976147 73.52699228 -6.5 75.5 C-7.8303125 76.5828125 -7.8303125 76.5828125 -9.1875 77.6875 C-12.31799666 80.26146392 -15.41172461 82.87569086 -18.5 85.5 C-23.34959381 89.62101634 -28.25160806 93.66991354 -33.1875 97.6875 C-36.31799666 100.26146392 -39.41172461 102.87569086 -42.5 105.5 C-47.34959381 109.62101634 -52.25160806 113.66991354 -57.1875 117.6875 C-60.87289551 120.71771409 -64.50758446 123.80558774 -68.14208984 126.89648438 C-72.62873459 130.70496223 -77.17813569 134.42864364 -81.7578125 138.125 C-83.61360061 139.67687856 -85.32993421 141.25352597 -87 143 C-87.66 142.67 -88.32 142.34 -89 142 C-87.47665851 139.56265362 -85.95330995 137.12531166 -84.42993164 134.68798828 C-83.08134499 132.53018354 -81.73287839 130.37230377 -80.38452148 128.21435547 C-77.00126251 122.80004557 -73.61659024 117.38663846 -70.2265625 111.9765625 C-63.02004694 100.4704982 -55.87247963 88.93030177 -48.76977539 77.35986328 C-44.42566507 70.29200163 -40.02568988 63.26311194 -35.57739258 56.26049805 C-31.3218186 49.54557571 -27.15790153 42.77573081 -23 36 C-18.09959436 28.01808854 -13.18174141 20.04861589 -8.1875 12.125 C-7.70216797 11.35285156 -7.21683594 10.58070313 -6.71679688 9.78515625 C-2.21936725 2.67444256 -2.21936725 2.67444256 0 0 Z " fill="#FBFBFB" transform="translate(985,845)"/>
<path d="M0 0 C4.95 0 9.9 0 15 0 C18.49627853 8.26046817 21.76715608 16.56661073 24.86328125 24.984375 C25.30012741 26.16598206 25.73697357 27.34758911 26.1870575 28.56500244 C27.33133569 31.66145809 28.47349184 34.75868471 29.61456299 37.85632324 C30.78613816 41.03509818 31.96058377 44.21281221 33.13476562 47.390625 C35.42578059 53.59279144 37.71399424 59.79598563 40 66 C42.95417439 58.97808277 45.84645906 51.94315679 48.55859375 44.82421875 C49.02604759 43.60458183 49.02604759 43.60458183 49.50294495 42.36030579 C50.48277765 39.80333092 51.46034905 37.24550077 52.4375 34.6875 C56.87184757 23.0885248 61.35718345 11.51734245 66 0 C70.95 0 75.9 0 81 0 C79.12413719 6.43749937 77.08090175 12.72916463 74.69140625 18.9921875 C74.37254959 19.83608536 74.05369293 20.67998322 73.72517395 21.54945374 C72.6747125 24.32607905 71.6189623 27.10065283 70.5625 29.875 C69.81649157 31.83924468 69.07056231 33.80351943 68.32470703 35.76782227 C66.73139649 39.96067521 65.13494452 44.15231728 63.53662109 48.34326172 C61.80583385 52.88223593 60.07998541 57.42304544 58.35791016 61.96533203 C56.13794647 67.82033478 53.91013969 73.67229923 51.67697144 79.52227783 C50.81777254 81.77605624 49.96089081 84.03071956 49.10647583 86.28631592 C35.91883158 121.07523389 35.91883158 121.07523389 25.90917969 127.30029297 C23.64520671 128.13003038 21.86166505 128.22786034 19.453125 128.1953125 C18.18662109 128.18564453 18.18662109 128.18564453 16.89453125 128.17578125 C16.02183594 128.15902344 15.14914062 128.14226562 14.25 128.125 C13.36183594 128.11597656 12.47367188 128.10695313 11.55859375 128.09765625 C9.37227989 128.0741475 7.18610516 128.03827811 5 128 C5 123.38 5 118.76 5 114 C8.54817708 113.77213542 12.09635417 113.54427083 15.64453125 113.31640625 C18.99181893 113.12815453 18.99181893 113.12815453 22 112 C23.12465321 110.17615119 23.12465321 110.17615119 24 108 C24.33298096 107.32694824 24.66596191 106.65389648 25.0090332 105.96044922 C26.14337294 103.61308107 27.2285488 101.24602785 28.3125 98.875 C28.71017578 98.070625 29.10785156 97.26625 29.51757812 96.4375 C31.50075037 92.01159688 32.40839772 89.06201504 30.84277344 84.37548828 C30.5545723 83.50272247 30.26637115 82.62995667 29.96943665 81.73074341 C28.3364712 77.13094864 26.6517702 72.55685305 24.90234375 68 C24.51134491 66.97330704 24.12034607 65.94661407 23.71749878 64.8888092 C22.46074527 61.59129062 21.19908185 58.29567392 19.9375 55 C19.07542841 52.73897921 18.21369412 50.47782978 17.35229492 48.21655273 C13.76747101 38.81313183 10.17166423 29.41418125 6.5234375 20.03515625 C6.05172119 18.82021484 5.58000488 17.60527344 5.09399414 16.35351562 C4.26477325 14.22398665 3.43092884 12.09624981 2.59155273 9.97070312 C2.23778564 9.06384766 1.88401855 8.15699219 1.51953125 7.22265625 C1.22151611 6.46734619 0.92350098 5.71203613 0.61645508 4.93383789 C0 3 0 3 0 0 Z " fill="#FAFAFA" transform="translate(1199,1288)"/>
<path d="M0 0 C7.9900261 6.39202088 9.65081431 15.08054248 11.1875 24.8125 C11.53983807 29.65220478 11.54102736 34.45428738 11.48046875 39.3046875 C11.47622391 40.61664093 11.47197906 41.92859436 11.46760559 43.28030396 C11.45631982 46.71622874 11.42700011 50.15175412 11.39349365 53.58752441 C11.36243488 57.11428428 11.34902495 60.64111065 11.33398438 64.16796875 C11.30210878 71.04965669 11.24948102 77.93101788 11.1875 84.8125 C5.9075 84.8125 0.6275 84.8125 -4.8125 84.8125 C-4.8218457 82.91564453 -4.83119141 81.01878906 -4.84082031 79.06445312 C-4.87644415 72.77386795 -4.93030302 66.48364196 -4.99640274 60.19330597 C-5.03579188 56.38210919 -5.06802186 52.57114048 -5.08349609 48.75976562 C-5.09871981 45.0765966 -5.13326455 41.39405495 -5.18080902 37.71116638 C-5.19556439 36.31112646 -5.20353764 34.91099694 -5.20438385 33.51087952 C-5.21395046 25.61395656 -5.29241625 19.45980127 -9.8125 12.8125 C-16.26687919 9.05722483 -23.49565044 8.655078 -30.8125 9.8125 C-36.71115811 11.82958724 -44.00099885 14.77098889 -47.8125 19.8125 C-48.28756633 22.73904982 -48.28756633 22.73904982 -48.24487305 26.11987305 C-48.26466721 27.42099533 -48.28446136 28.72211761 -48.30485535 30.06266785 C-48.31162517 31.48318335 -48.31807203 32.90370042 -48.32421875 34.32421875 C-48.34106329 35.77726261 -48.35921324 37.23029188 -48.37861633 38.68330383 C-48.42614742 42.50549764 -48.45593635 46.3276323 -48.48205566 50.15002441 C-48.51184573 54.05130701 -48.55838132 57.95238571 -48.60351562 61.85351562 C-48.68958416 69.50642685 -48.75536543 77.15930805 -48.8125 84.8125 C-53.7625 84.8125 -58.7125 84.8125 -63.8125 84.8125 C-63.8125 55.7725 -63.8125 26.7325 -63.8125 -3.1875 C-58.8625 -3.1875 -53.9125 -3.1875 -48.8125 -3.1875 C-48.4825 -0.5475 -48.1525 2.0925 -47.8125 4.8125 C-47.11125 4.34199219 -46.41 3.87148437 -45.6875 3.38671875 C-31.55082985 -5.89047104 -15.3995333 -9.76073203 0 0 Z " fill="#F7F7F7" transform="translate(566.8125,1291.1875)"/>
<path d="M0 0 C4.95 0 9.9 0 15 0 C15.01458252 1.80073975 15.02916504 3.60147949 15.04418945 5.45678711 C15.0960351 11.43600659 15.16137211 17.41495399 15.23571491 23.39392757 C15.28026116 27.01560639 15.31955073 30.6371768 15.34643555 34.2590332 C15.3726273 37.76058407 15.4131384 41.26171415 15.46318626 44.7630024 C15.48775634 46.73520969 15.49785851 48.70758032 15.50764465 50.67991638 C15.60975336 62.64444675 15.60975336 62.64444675 21.5625 72.5 C27.57782619 76.20173919 34.13801386 75.494063 41 75 C44.64167591 74.1183311 47.76506758 72.88165235 51 71 C52.184729 70.45472656 53.36945801 69.90945313 54.59008789 69.34765625 C57.30613926 67.3721994 57.92958636 66.32271416 58.65536499 62.99638367 C58.90985825 59.00724467 58.94453262 55.06885164 58.90234375 51.07421875 C58.91173234 49.60160621 58.92419232 48.12901033 58.93959045 46.65644836 C58.97178915 42.79111378 58.96238511 38.92696671 58.94421387 35.06158447 C58.93304788 31.11319022 58.96136695 27.16509877 58.98632812 23.21679688 C59.02945402 15.47752644 59.0249648 7.73940521 59 0 C63.95 0 68.9 0 74 0 C74 29.04 74 58.08 74 88 C69.38 88 64.76 88 60 88 C60 85.03 60 82.06 60 79 C59.40574219 79.45890625 58.81148437 79.9178125 58.19921875 80.390625 C47.22252588 88.51645051 37.72076955 91.261156 24 90 C17.25701438 88.66674964 11.76452326 85.76452326 6.875 80.875 C1.99931021 73.39894232 -0.13129244 65.51492888 -0.11352539 56.64916992 C-0.11344986 55.3882402 -0.11337433 54.12731049 -0.11329651 52.82817078 C-0.10819069 51.46226969 -0.1029747 50.09636902 -0.09765625 48.73046875 C-0.0957897 47.32513988 -0.09436692 45.91981035 -0.09336853 44.51448059 C-0.089562 40.82705875 -0.07974774 37.1396767 -0.06866455 33.45227051 C-0.05841025 29.68498269 -0.05386232 25.9176884 -0.04882812 22.15039062 C-0.0381237 14.7669069 -0.0205421 7.38346411 0 0 Z " fill="#FAFAFA" transform="translate(750,1288)"/>
<path d="M0 0 C0 4.62 0 9.24 0 14 C-2.37630208 13.28385417 -4.75260417 12.56770833 -7.12890625 11.8515625 C-8.07636719 11.57054687 -9.02382812 11.28953125 -10 11 C-11.06992188 10.64550781 -12.13984375 10.29101562 -13.2421875 9.92578125 C-17.75805106 8.81324522 -21.93036744 8.59524878 -26.5625 8.5625 C-27.38685547 8.52962891 -28.21121094 8.49675781 -29.06054688 8.46289062 C-33.34169962 8.4252466 -36.13483115 8.6492788 -39.52734375 11.40234375 C-42.40204919 14.28242223 -42.40204919 14.28242223 -43.0546875 18.0234375 C-42.99539063 18.79945312 -42.93609375 19.57546875 -42.875 20.375 C-42.83117188 21.14585938 -42.78734375 21.91671875 -42.7421875 22.7109375 C-41.60534198 26.21720842 -40.17208116 27.07729069 -37 29 C-33.12002364 30.38591977 -29.16876386 31.4463483 -25.1875 32.5 C-3.90043301 38.1956233 -3.90043301 38.1956233 2.3125 48.5 C5.50991238 55.37573638 4.91935951 63.71362087 2.875 70.875 C-0.20924725 78.63536405 -5.12381011 82.5187846 -12.53515625 86.0546875 C-25.19700715 90.91073808 -43.31340779 89.22935716 -55.49609375 83.91015625 C-57.3619019 83.00150445 -59.18750415 82.01081499 -61 81 C-61 76.05 -61 71.1 -61 66 C-58.10286458 67.23697917 -55.20572917 68.47395833 -52.30859375 69.7109375 C-45.15027651 72.49989227 -39.04736132 73.33927643 -31.4375 73.3125 C-30.51775391 73.32861328 -29.59800781 73.34472656 -28.65039062 73.36132812 C-23.36631367 73.36512689 -19.52068639 73.04949935 -15 70 C-12.02182022 65.53273033 -12.40080094 61.2351076 -13 56 C-15.71821502 51.1813461 -21.95993656 49.64771305 -27 48 C-29.51813941 47.33831869 -32.03681566 46.69329124 -34.5625 46.0625 C-43.91587126 43.67983946 -51.64004017 40.37607281 -57 32 C-59.89450563 25.29000967 -60.27195716 17.21816491 -58.16015625 10.21484375 C-54.78070666 2.67081993 -49.6164228 -1.70439797 -42.0625 -4.875 C-28.66491437 -8.7193244 -12.30460843 -6.15230421 0 0 Z " fill="#F8F8F8" transform="translate(1498,1291)"/>
<path d="M0 0 C0.64715973 0.28024521 1.29431946 0.56049042 1.96109009 0.84922791 C5.22845454 2.48436319 7.54826382 3.69385694 8.78053284 7.25682068 C9.11155282 10.11102611 9.18741637 12.86870477 9.16796875 15.7421875 C9.18273758 16.7839212 9.19750641 17.82565491 9.21272278 18.8989563 C9.23128571 21.09938928 9.22915339 23.30008096 9.20776367 25.50048828 C9.18758742 28.8604423 9.26846641 32.2077831 9.35742188 35.56640625 C9.50512799 51.05710293 9.50512799 51.05710293 5.67822266 55.99707031 C2.78030595 57.89623107 0.31250076 59.01378753 -3 60 C-4.04615479 60.36601318 -5.09230957 60.73202637 -6.17016602 61.10913086 C-13.12300617 63.29797684 -20.76227108 62.99111783 -27.4375 60.0625 C-34.19382293 56.14690376 -37.47792811 50.26854058 -39.875 43 C-42.73862966 30.8807102 -42.19143756 17.78409833 -36.25 6.75 C-26.45544197 -5.22112648 -13.69318338 -7.2298351 0 0 Z " fill="#020202" transform="translate(1725,1303)"/>
<path d="M0 0 C7.29780804 4.04238066 7.29780804 4.04238066 8.77182007 8.1517334 C9.09125878 10.71266121 9.16165265 13.16539804 9.1328125 15.74609375 C9.15140823 17.14010155 9.15140823 17.14010155 9.17037964 18.56227112 C9.18454302 20.5213707 9.17828386 22.48071182 9.15283203 24.43969727 C9.12508334 27.42852306 9.19320594 30.40481142 9.26953125 33.39257812 C9.37946231 47.19502496 9.37946231 47.19502496 5.83056641 51.83862305 C3.2593711 53.66443143 0.93848217 54.88060527 -2 56 C-2.70616455 56.35368652 -3.4123291 56.70737305 -4.13989258 57.07177734 C-10.32036198 60.15548981 -17.94577 59.99786776 -24.5234375 58.37890625 C-30.3714229 56.13351936 -34.75421114 52.35639249 -38 47 C-40.89051733 40.4810145 -41.5809704 34.2647431 -41.5625 27.1875 C-41.56008301 26.22207275 -41.55766602 25.25664551 -41.55517578 24.26196289 C-41.32778733 15.42725273 -39.40801628 9.09062248 -33.51171875 2.28125 C-23.756586 -6.76394048 -11.1854368 -5.34955673 0 0 Z " fill="#020202" transform="translate(454,1303)"/>
<path d="M0 0 C4.95 0 9.9 0 15 0 C15 9.9 15 19.8 15 30 C21.93 30 28.86 30 36 30 C36 34.62 36 39.24 36 44 C29.07 44 22.14 44 15 44 C15.09356711 51.5990946 15.19966983 59.19787185 15.31738281 66.79663086 C15.35566099 69.38154305 15.39051586 71.96650829 15.421875 74.55151367 C15.46755006 78.26760823 15.5255417 81.98333789 15.5859375 85.69921875 C15.59748871 86.85459641 15.60903992 88.00997406 15.62094116 89.20036316 C15.64081085 90.28110611 15.66068054 91.36184906 15.68115234 92.4753418 C15.69447601 93.42354294 15.70779968 94.37174408 15.7215271 95.34867859 C16.0513985 98.48936164 16.6950349 101.6950349 19 104 C21.69654854 104.07319621 24.36691458 104.09242537 27.0625 104.0625 C27.82111328 104.05798828 28.57972656 104.05347656 29.36132812 104.04882812 C31.24091871 104.0370068 33.12046899 104.01907078 35 104 C35 108.62 35 113.24 35 118 C26.17005991 120.20748502 14.04405104 120.73179473 6 116 C1.3981957 110.55049491 -0.25680031 104.86167307 -0.22705078 97.81103516 C-0.22689972 96.61024323 -0.22674866 95.40945129 -0.22659302 94.17227173 C-0.21627045 92.89081268 -0.20594788 91.60935364 -0.1953125 90.2890625 C-0.1915779 88.95242526 -0.18873304 87.61578526 -0.18673706 86.27914429 C-0.17913577 82.77744868 -0.15951788 79.2759215 -0.1373291 75.77429199 C-0.11679474 72.19460325 -0.10771918 68.61488704 -0.09765625 65.03515625 C-0.07626827 58.02336174 -0.0411151 51.01170632 0 44 C-3.63 44 -7.26 44 -11 44 C-11 39.38 -11 34.76 -11 30 C-7.37 30 -3.74 30 0 30 C0 20.1 0 10.2 0 0 Z " fill="#FAFAFA" transform="translate(694,1259)"/>
<path d="M0 0 C4.95 0 9.9 0 15 0 C15 9.9 15 19.8 15 30 C21.6 30 28.2 30 35 30 C35 34.62 35 39.24 35 44 C28.4 44 21.8 44 15 44 C15.10808101 51.24976848 15.22017448 58.4994481 15.33933926 65.74904346 C15.39451122 69.11529613 15.44792197 72.48155757 15.49731445 75.84790039 C15.55496637 79.71769614 15.61867568 83.58735144 15.68359375 87.45703125 C15.70030624 88.66647903 15.71701874 89.87592682 15.73423767 91.12202454 C15.75418289 92.24296005 15.77412811 93.36389557 15.79467773 94.51879883 C15.81799416 96.00105705 15.81799416 96.00105705 15.84178162 97.51325989 C15.90213783 100.13199956 15.90213783 100.13199956 17 103 C20.04213267 104.52106634 23.28047572 104.37429338 26.625 104.5625 C27.68460938 104.62727539 27.68460938 104.62727539 28.765625 104.69335938 C30.51018537 104.79944751 32.25506697 104.90022889 34 105 C34 109.29 34 113.58 34 118 C29.57146356 119.10713411 25.65954704 119.2206976 21.125 119.25 C20.33480469 119.270625 19.54460937 119.29125 18.73046875 119.3125 C13.72333116 119.34582538 10.34357339 118.7592913 6 116 C1.26607011 111.00307401 -0.25482034 106.5583929 -0.22705078 99.7409668 C-0.22689972 98.50005783 -0.22674866 97.25914886 -0.22659302 95.9806366 C-0.21638143 94.63682899 -0.20594946 93.29302305 -0.1953125 91.94921875 C-0.19157931 90.5663117 -0.18873378 89.18340198 -0.18673706 87.80049133 C-0.17912462 84.1721966 -0.15949691 80.54406363 -0.1373291 76.91583252 C-0.11681899 73.20888456 -0.10772433 69.5019103 -0.09765625 65.79492188 C-0.07624852 58.52986586 -0.04108613 51.26497627 0 44 C-3.96 44 -7.92 44 -12 44 C-12 39.38 -12 34.76 -12 30 C-8.04 30 -4.08 30 0 30 C0 20.1 0 10.2 0 0 Z " fill="#FBFBFB" transform="translate(1153,1259)"/>
<path d="M0 0 C4.95 0 9.9 0 15 0 C15.01213028 2.16323067 15.01213028 2.16323067 15.02450562 4.37016296 C15.10194248 17.9516858 15.18955824 31.53311489 15.28752708 45.11450481 C15.33763422 52.09706625 15.38407732 59.07961605 15.421875 66.06225586 C15.45835241 72.79908718 15.50506655 79.53577605 15.55806351 86.27250099 C15.5766164 88.84451892 15.59172102 91.41656408 15.60334396 93.98862267 C15.62019076 97.58719298 15.64922283 101.18547189 15.68115234 104.78393555 C15.68331253 105.85064484 15.68547272 106.91735413 15.68769836 108.01638794 C15.70444359 109.49076073 15.70444359 109.49076073 15.7215271 110.99491882 C15.72705786 111.84573375 15.73258862 112.69654867 15.73828697 113.57314587 C16.06724998 116.62360626 16.76805363 119.76805363 19 122 C21.34987262 122.23527773 23.70556039 122.41386417 26.0625 122.5625 C28.351875 122.706875 30.64125 122.85125 33 123 C33 127.62 33 132.24 33 137 C29.79115216 137.08127476 26.58438239 137.14063141 23.375 137.1875 C22.47136719 137.21263672 21.56773438 137.23777344 20.63671875 137.26367188 C15.30982898 137.32199549 11.58804001 137.0255496 7 134 C-0.18480072 126.65190835 -0.28978633 119.8844962 -0.22705078 110.11962891 C-0.22734283 108.92881714 -0.22763489 107.73800537 -0.22793579 106.5111084 C-0.22678426 103.25943181 -0.21677944 100.00792916 -0.20278788 96.7562871 C-0.19025383 93.35302523 -0.18910791 89.94975966 -0.18673706 86.54647827 C-0.18053013 80.1080225 -0.16413001 73.66963494 -0.14403808 67.23120916 C-0.12165453 59.89869194 -0.11067948 52.56617141 -0.10064721 45.23362851 C-0.07976305 30.15571341 -0.04419781 15.07786609 0 0 Z " fill="#FAFAFA" transform="translate(1298,1241)"/>
<path d="M0 0 C8.3840625 -0.0928125 8.3840625 -0.0928125 16.9375 -0.1875 C18.68281006 -0.21481201 20.42812012 -0.24212402 22.22631836 -0.27026367 C32.68201373 -0.3658984 41.4387213 0.06944105 50 7 C53.18731735 11.15110141 53.45970565 14.86927876 53.375 19.9375 C53.38660156 20.62779297 53.39820313 21.31808594 53.41015625 22.02929688 C53.38326317 26.75799616 52.47332 29.98680048 50 34 C43.04580909 40.58818086 35.19516946 41.16470258 25.9765625 41.09765625 C25.31422607 41.09664917 24.65188965 41.09564209 23.96948242 41.09460449 C21.52130372 41.08941589 19.07314992 41.07545499 16.625 41.0625 C11.13875 41.041875 5.6525 41.02125 0 41 C0 27.47 0 13.94 0 0 Z " fill="#000000" transform="translate(1579,1322)"/>
<path d="M0 0 C0.99 0.33 1.98 0.66 3 1 C3.20568604 2.21429687 3.41137207 3.42859375 3.62329102 4.6796875 C4.60169695 10.45335102 5.58185346 16.22671666 6.5625 22 C6.74395569 23.06861267 6.92541138 24.13722534 7.11236572 25.23822021 C8.96193034 36.12428131 10.81271867 47.00989578 12.73828125 57.8828125 C12.94197327 59.0333461 12.94197327 59.0333461 13.14978027 60.2071228 C13.42195164 61.74381955 13.69414796 63.28051187 13.96636963 64.81719971 C16.23421609 77.62519712 18.41776949 90.44485534 20.51953125 103.28125 C20.62933823 103.95186337 20.7391452 104.62247673 20.85227966 105.31341171 C22.05744248 112.67813188 23.25583476 120.04392684 24.44873047 127.41064453 C24.85482261 129.91183593 25.26122929 132.41297628 25.66796875 134.9140625 C25.96133118 136.72065842 25.96133118 136.72065842 26.26062012 138.56375122 C27.66077966 147.11432881 29.16944917 155.64094808 30.82279968 164.14639282 C31.64796049 168.50139783 32.19697151 172.54165179 32 177 C30.68 177.33 29.36 177.66 28 178 C25.80060686 172.78593151 24.61454401 167.50588152 23.375 162 C23.14554688 161.01515625 22.91609375 160.0303125 22.6796875 159.015625 C22.463125 158.06171875 22.2465625 157.1078125 22.0234375 156.125 C21.72832275 154.82949219 21.72832275 154.82949219 21.42724609 153.5078125 C21 151 21 151 21 146 C17.37 146.99 13.74 147.98 10 149 C12 145 12 145 14.6875 142.9375 C17.35519764 139.54880299 17.2314065 139.08128967 16.75610352 135.01147461 C16.64307892 134.02839325 16.53005432 133.04531189 16.41360474 132.03244019 C15.76781228 127.29766122 15.02815711 122.58770771 14.21484375 117.87890625 C14.03800552 116.83634674 13.8611673 115.79378723 13.67897034 114.71963501 C13.10296677 111.33314016 12.52046652 107.94780257 11.9375 104.5625 C11.53504334 102.2068064 11.13270092 99.85109327 10.73046875 97.49536133 C7.76641341 80.19502429 4.67585303 62.91870165 1.47631836 45.66040039 C1.31630844 44.79353607 1.15629852 43.92667175 0.99143982 43.03353882 C0.69744626 41.44243112 0.40154496 39.85167395 0.10316467 38.26138306 C-0.77250328 33.52064586 -1.44141295 28.78880453 -2 24 C-2.58437836 24.25278214 -3.16875671 24.50556427 -3.77084351 24.76600647 C-9.83345155 27.38667448 -15.90066018 29.99645407 -21.97070312 32.59985352 C-24.23786273 33.5739322 -26.50381927 34.55081585 -28.76855469 35.53051758 C-32.01708559 36.93523009 -35.26975722 38.32992034 -38.5234375 39.72265625 C-40.05005508 40.38661156 -40.05005508 40.38661156 -41.60751343 41.0639801 C-42.54833771 41.46447067 -43.48916199 41.86496124 -44.45849609 42.27758789 C-45.28900482 42.63510635 -46.11951355 42.99262482 -46.97518921 43.36097717 C-49 44 -49 44 -51 43 C-44.89314532 37.80577543 -38.7866974 32.6161767 -32.5625 27.5625 C-28.36305894 24.14321635 -24.23193488 20.65408036 -20.125 17.125 C-19.54137695 16.62532715 -18.95775391 16.1256543 -18.35644531 15.61083984 C-15.32613566 13.01331244 -12.3139407 10.39807844 -9.32421875 7.75390625 C-8.15368425 6.73172684 -6.98311274 5.7095898 -5.8125 4.6875 C-5.27189941 4.20104004 -4.73129883 3.71458008 -4.17431641 3.21337891 C-2.64453125 1.88671875 -2.64453125 1.88671875 0 0 Z " fill="#F5F5F5" transform="translate(853,803)"/>
<path d="M0 0 C5.07375 -0.061875 10.1475 -0.12375 15.375 -0.1875 C16.95458496 -0.21481201 18.53416992 -0.24212402 20.16162109 -0.27026367 C37.73860371 -0.3736054 37.73860371 -0.3736054 45 5.375 C49.82574011 11.7087839 49.74479474 18.30068441 49 26 C47.33376499 31.93596224 44.05974215 35.62683857 39 39 C33.97453931 40.74947778 29.62138903 41.2379228 24.31640625 41.1953125 C22.39356812 41.18781982 22.39356812 41.18781982 20.43188477 41.18017578 C18.82498779 41.16196777 17.21809082 41.14375977 15.5625 41.125 C10.426875 41.08375 5.29125 41.0425 0 41 C0 27.47 0 13.94 0 0 Z " fill="#020202" transform="translate(1579,1268)"/>
<path d="M0 0 C0 4.62 0 9.24 0 14 C-1.65 14 -3.3 14 -5 14 C-13.48895525 14.65845118 -23.90128145 18.90128145 -30 25 C-30.33264555 27.8323903 -30.33264555 27.8323903 -30.31884766 31.19384766 C-30.33871735 32.49504547 -30.35858704 33.79624329 -30.37905884 35.13687134 C-30.3909362 36.5626 -30.402599 37.98833045 -30.4140625 39.4140625 C-30.43276674 40.86853138 -30.45233959 42.32298933 -30.4727478 43.7774353 C-30.52415394 47.60784469 -30.56373399 51.43828928 -30.60089111 55.26885986 C-30.64087782 59.17672497 -30.6919944 63.08444252 -30.7421875 66.9921875 C-30.83904719 74.66136497 -30.92239109 82.33059913 -31 90 C-35.95 90 -40.9 90 -46 90 C-46 60.96 -46 31.92 -46 2 C-41.05 2 -36.1 2 -31 2 C-31 4.97 -31 7.94 -31 11 C-30.34773437 10.52949219 -29.69546875 10.05898437 -29.0234375 9.57421875 C-18.91330128 2.37186507 -12.34383497 -0.16458447 0 0 Z " fill="#FAFAFA" transform="translate(899,1286)"/>
<path d="M0 0 C0 3.43849145 -0.75103105 4.74773993 -2.38671875 7.734375 C-2.9067749 8.69005371 -3.42683105 9.64573242 -3.96264648 10.63037109 C-4.81644897 12.1745874 -4.81644897 12.1745874 -5.6875 13.75 C-6.26894775 14.8117041 -6.85039551 15.8734082 -7.44946289 16.96728516 C-19.46802141 38.84594082 -19.46802141 38.84594082 -24.57104492 47.43383789 C-26.04976526 49.95536915 -26.04976526 49.95536915 -27.0324707 52.62670898 C-29.55974314 58.3500307 -32.62366684 60.66723132 -38.26600647 62.95617676 C-42.57568663 64.53744526 -46.9345613 65.93409167 -51.3125 67.3125 C-53.06943037 67.89587289 -54.82530334 68.48244046 -56.58007812 69.07226562 C-69.61134201 73.41308169 -82.79393361 77.23308665 -96 81 C-92.45885637 77.36738772 -88.76751432 74.00547227 -84.875 70.75 C-84.30587891 70.27111328 -83.73675781 69.79222656 -83.15039062 69.29882812 C-78.73828729 65.59502231 -74.28019511 61.94899602 -69.8125 58.3125 C-66.68200334 55.73853608 -63.58827539 53.12430914 -60.5 50.5 C-55.65040619 46.37898366 -50.74839194 42.33008646 -45.8125 38.3125 C-42.68200334 35.73853608 -39.58827539 33.12430914 -36.5 30.5 C-32.53092065 27.12721426 -28.53983137 23.78823483 -24.5 20.5 C-19.29034298 16.25904934 -14.16173527 11.92778392 -9.04296875 7.578125 C-6.04192774 5.03552286 -3.02497047 2.51402628 0 0 Z " fill="#FAFAFA" transform="translate(990,914)"/>
<path d="M0 0 C5.99343927 1.92985017 11.85962283 4.06165926 17.69140625 6.43359375 C18.480952 6.75280289 19.27049774 7.07201202 20.08396912 7.40089417 C21.73907538 8.07097523 23.39361638 8.74245409 25.04760742 9.4152832 C27.55793877 10.43564602 30.07081969 11.44952964 32.58398438 12.46289062 C34.20328265 13.11940295 35.82242849 13.77629141 37.44140625 14.43359375 C38.18121231 14.73164413 38.92101837 15.02969452 39.6832428 15.33677673 C44.58265395 17.33705536 49.29073734 19.58481484 54 22 C50.2893941 26.99012518 45.93938757 30.63651128 41.09375 34.51171875 C37.84830043 37.1220109 34.67002444 39.79931241 31.5 42.5 C27.30486371 46.0575605 23.10518488 49.60914713 18.875 53.125 C18.00617187 53.84945312 17.13734375 54.57390625 16.2421875 55.3203125 C14 57 14 57 11 58 C8.3714539 44.9671444 5.7727118 31.92879509 3.25 18.875 C3.03964111 17.79234863 2.82928223 16.70969727 2.61254883 15.59423828 C1.61441523 10.40720944 0.68261133 5.23830002 0 0 Z " fill="#FBFBFB" transform="translate(989,843)"/>
<path d="M0 0 C4.95 0 9.9 0 15 0 C15 29.04 15 58.08 15 88 C10.05 88 5.1 88 0 88 C0 58.96 0 29.92 0 0 Z " fill="#FBFBFB" transform="translate(359,1288)"/>
<path d="M0 0 C2.31 0 4.62 0 7 0 C7 18.15 7 36.3 7 55 C5.02 55 3.04 55 1 55 C0.67 54.01 0.34 53.02 0 52 C-0.969375 52.66 -1.93875 53.32 -2.9375 54 C-7.27531957 56.45868316 -11.10951281 56.85672768 -16 56 C-20.61755352 53.90903237 -23.26996962 51.17265272 -25.30078125 46.60546875 C-27.03436401 40.14569387 -27.32027972 32.74734713 -25.08203125 26.39453125 C-22.59296726 22.10109725 -19.55760474 19.06382101 -15 17 C-9.58185769 16.33024548 -5.92935742 16.53532129 -1 19 C-0.67 12.73 -0.34 6.46 0 0 Z " fill="#F1F1F1" transform="translate(849,1458)"/>
<path d="M0 0 C2.78864607 2.78864607 1.61434657 10.38702755 1.6640625 14.12255859 C1.50823698 21.22844567 1.50823698 21.22844567 -0.7265625 24.62109375 C-3.11367827 26.20019954 -5.27920725 27.12866292 -8 28 C-8.96873047 28.48726562 -8.96873047 28.48726562 -9.95703125 28.984375 C-15.62528931 31.70513887 -21.84798289 31.77116834 -28 31 C-32.88949139 28.729879 -35.76263748 25.90498706 -38 21 C-38.73341486 15.1925517 -39.08946025 9.19089533 -36.3125 3.875 C-28.1143302 -6.31731921 -10.94910545 -4.80223923 0 0 Z " fill="#020202" transform="translate(650,1334)"/>
<path d="M0 0 C1.98 0 3.96 0 6 0 C7.59242983 4.44544408 8.62443041 8.80236142 9.47265625 13.4453125 C9.60063095 14.13760956 9.72860565 14.82990662 9.86045837 15.54318237 C10.26518537 17.73640089 10.66411439 19.93062161 11.0625 22.125 C11.4655193 24.32630922 11.86976386 26.52738544 12.2752533 28.72824097 C12.6416283 30.71960711 13.00462028 32.71159479 13.36743164 34.70361328 C13.8402067 37.16729866 14.35035785 39.57898754 15 42 C15.12528076 41.40276123 15.25056152 40.80552246 15.37963867 40.19018555 C18.22663598 26.68599288 21.35020112 13.31011762 25 0 C26.98 0 28.96 0 31 0 C33.61425097 6.50831437 35.40079071 13.06666678 37.0625 19.875 C37.31837891 20.89980469 37.57425781 21.92460938 37.83789062 22.98046875 C39.39770844 29.29191667 40.74837378 35.62099136 42 42 C42.23710693 40.7632251 42.47421387 39.5264502 42.71850586 38.25219727 C43.59611641 33.67998906 44.47879455 29.10877163 45.36303711 24.5378418 C45.74561487 22.55633938 46.12680285 20.57456813 46.5065918 18.5925293 C47.05155357 15.74977566 47.60144524 12.90801455 48.15234375 10.06640625 C48.3221727 9.17474258 48.49200165 8.28307892 48.66697693 7.36439514 C49.88612829 1.11387171 49.88612829 1.11387171 51 0 C52.99958364 -0.04080783 55.00045254 -0.04254356 57 0 C55.57047943 7.94718203 54.08582513 15.88278215 52.5625 23.8125 C52.34440674 24.94800293 52.12631348 26.08350586 51.90161133 27.25341797 C50.36844584 35.19227487 48.76472809 43.10893946 47 51 C44.03 51 41.06 51 38 51 C36.89493372 46.75023341 35.79111613 42.50014339 34.6875 38.25 C34.2244043 36.46916016 34.2244043 36.46916016 33.75195312 34.65234375 C31.79457965 27.11130487 29.87485037 19.56198342 28 12 C27.7326001 13.145896 27.4652002 14.29179199 27.18969727 15.47241211 C26.20000685 19.70927161 25.20559096 23.94501003 24.2097168 28.18041992 C23.77873066 30.01637858 23.34903998 31.85264182 22.9206543 33.68920898 C22.30594886 36.32355935 21.68664715 38.95679195 21.06640625 41.58984375 C20.87470352 42.41588608 20.68300079 43.24192841 20.48548889 44.09300232 C19.11387171 49.88612829 19.11387171 49.88612829 18 51 C15.32941149 51.14115161 12.67567762 51.04247107 10 51 C7.64700806 41.99491691 5.690441 32.93988049 3.875 23.8125 C3.60823613 22.49801374 3.34130965 21.18356047 3.07421875 19.86914062 C1.75123999 13.25088902 0.6025473 6.72354606 0 0 Z " fill="#EEEEEE" transform="translate(538,1462)"/>
<path d="M0 0 C5.65464934 2.77591877 9.58623153 7.18219908 12 13 C12.90071004 20.3313608 12.55495121 26.98244977 8 33 C3.88554466 37.2970813 0.12861957 39.13910327 -5.8125 39.3125 C-10.6661481 39.25598008 -13.28169946 38.27564572 -17 35 C-22.4213553 29.2774583 -23.52923656 23.44116951 -23.3828125 15.75390625 C-22.58706885 10.0294239 -19.48856514 6.35009396 -15.3125 2.5625 C-10.40468835 -0.75358895 -5.81129425 -0.59181497 0 0 Z " fill="#F5F5F5" transform="translate(748,1475)"/>
<path d="M0 0 C24.55 0 24.55 0 30.875 5.5 C34.18372279 9.39261505 34.33694199 12.80719608 34.2890625 17.71484375 C33.845545 21.22102937 32.22596735 23.32883918 30 26 C29.54625 26.5775 29.0925 27.155 28.625 27.75 C22.48608515 32.47224219 14.23748776 31.13655637 7 31 C7 37.93 7 44.86 7 52 C4.69 52 2.38 52 0 52 C0 34.84 0 17.68 0 0 Z " fill="#EDEDED" transform="translate(658,1462)"/>
<path d="M0 0 C1.80615234 0.22998047 1.80615234 0.22998047 4.2109375 0.7421875 C5.56783691 1.02980957 5.56783691 1.02980957 6.95214844 1.32324219 C12.51724634 2.55893999 18.07308816 3.83141073 23.625 5.125 C25.41744141 5.54072266 25.41744141 5.54072266 27.24609375 5.96484375 C30.16437741 6.64188556 33.08233489 7.32029848 36 8 C33.52782983 10.47217017 32.00919287 10.59560793 28.609375 11.3046875 C15.03833338 14.3668303 5.19466277 17.30629678 -4.47753906 27.45361328 C-7.04566357 30.06209638 -9.87039141 32.35529003 -12.6875 34.6875 C-13.7661157 35.59837759 -14.84425105 36.50982433 -15.921875 37.421875 C-19.61054227 40.52256044 -23.35256442 43.55678759 -27.09375 46.59375 C-29.305293 48.42481248 -31.48756336 50.27552175 -33.65625 52.15625 C-34.59706421 52.97138062 -34.59706421 52.97138062 -35.55688477 53.80297852 C-36.78459647 54.87003419 -38.00919669 55.9406834 -39.23022461 57.01538086 C-42.00706337 59.42924456 -44.57453081 61.5944635 -48 63 C-45.75873193 59.07958255 -43.21099783 55.56147394 -40.4375 52 C-39.53507101 50.83730574 -38.63272958 49.67454351 -37.73046875 48.51171875 C-37.27333496 47.92438965 -36.81620117 47.33706055 -36.34521484 46.73193359 C-34.30179875 44.10108174 -32.27701663 41.45599773 -30.25 38.8125 C-25.59321624 32.75167491 -20.89818162 26.72078211 -16.20141602 20.69091797 C-11.7059252 14.91656417 -7.2404108 9.12001477 -2.79296875 3.30859375 C-1 1 -1 1 0 0 Z " fill="#F7F7F7" transform="translate(847,781)"/>
<path d="M0 0 C5.53337924 3.02207636 8.55670265 8.30618908 10.34375 14.234375 C10.34375 16.544375 10.34375 18.854375 10.34375 21.234375 C-4.50625 21.234375 -19.35625 21.234375 -34.65625 21.234375 C-33.34167201 12.0323291 -30.37324447 7.23242244 -23.3046875 1.36328125 C-17.55394679 -2.57502222 -6.453031 -1.85999129 0 0 Z " fill="#0A0A0A" transform="translate(963.65625,1299.765625)"/>
<path d="M0 0 C5.33985082 3.14525304 8.23532146 7.45075633 10.5625 13.15234375 C11.3125 16.08984375 11.3125 16.08984375 11.3125 21.08984375 C-3.5375 21.08984375 -18.3875 21.08984375 -33.6875 21.08984375 C-32.62817552 12.61524789 -31.26193808 8.40273758 -25.125 2.71484375 C-17.93610279 -2.07775439 -8.26850466 -2.80023486 0 0 Z " fill="#090909" transform="translate(1394.6875,1299.91015625)"/>
<path d="M0 0 C5.14926611 2.48268188 7.67887421 5.517032 9.6875 10.8125 C10.16796924 14.17578471 10 17.60256939 10 21 C1.42 21 -7.16 21 -16 21 C-13.40123288 28.72009727 -13.40123288 28.72009727 -8 33 C-2.73952447 33.4242319 1.04636392 32.98145443 6 31 C6.66 32.65 7.32 34.3 8 36 C2.03791089 39.17978086 -3.27935406 39.88090941 -10 39 C-15.35974834 37.25289971 -18.30725061 33.86766236 -21 29 C-23.00370283 22.98889151 -23.2194415 15.44281974 -21.09375 9.44140625 C-16.11380328 0.99784275 -9.51712054 -1.40207579 0 0 Z " fill="#F0F0F0" transform="translate(1453,1475)"/>
<path d="M0 0 C3.21426975 3.13587293 5.39729635 6.13391339 6.5625 10.5 C6.5625 13.47 6.5625 16.44 6.5625 19.5 C-2.0175 19.5 -10.5975 19.5 -19.4375 19.5 C-17.02297582 27.28447715 -17.02297582 27.28447715 -11.4375 31.5 C-6.28277979 31.91570324 -1.52221636 31.34745273 3.5625 30.5 C3.8925 31.82 4.2225 33.14 4.5625 34.5 C-1.37454801 37.6664256 -6.7424198 38.51003365 -13.4375 37.5 C-18.26833864 35.68843551 -22.49621294 32.58548152 -24.8046875 27.84375 C-26.56765647 21.31423529 -26.84780199 13.93907529 -24.26171875 7.6328125 C-18.50279746 -1.44455698 -10.14763504 -4.42805893 0 0 Z " fill="#F1F1F1" transform="translate(1203.4375,1476.5)"/>
<path d="M0 0 C4.85993803 2.12070023 6.94749296 4.97755778 9.3359375 9.51171875 C10 12 10 12 10 21 C1.42 21 -7.16 21 -16 21 C-13.6155866 28.82366672 -13.6155866 28.82366672 -8 33 C-2.95803488 33.57313936 2.08586439 33.31043616 7 32 C7.33 33.32 7.66 34.64 8 36 C2.07155294 39.16183843 -3.31362394 40.02645945 -10 39 C-15.1079914 36.96183594 -18.76515209 34.12700402 -21 29 C-22.79074622 23.08164726 -23.07422993 15.93905153 -20.8125 10.125 C-15.64559843 1.21654901 -9.86275726 -1.10214193 0 0 Z " fill="#F3F3F3" transform="translate(888,1475)"/>
<path d="M0 0 C3.75198219 1.74199173 5.45322969 3.25274724 7.875 6.5625 C9 10 9 10 9 21 C0.75 21 -7.5 21 -16 21 C-14.2663101 30.39738312 -14.2663101 30.39738312 -10.8125 32.625 C-4.57533243 33.45662234 0.12909654 33.34836138 6 31 C6.66 32.65 7.32 34.3 8 36 C1.75212674 39.25975996 -4.11381265 40.19832351 -11.0546875 38.49609375 C-16.12249491 36.59294719 -18.77646939 33.54015595 -21.078125 28.76171875 C-23.07738933 22.77239722 -23.21932191 15.41724124 -21.08984375 9.44921875 C-16.13072752 0.98204602 -9.51103214 -1.38702552 0 0 Z " fill="#F2F2F2" transform="translate(623,1475)"/>
<path d="M0 0 C4.11211988 1.8357678 5.56841306 3.28068843 7.875 7.125 C9 11 9 11 9 21 C0.75 21 -7.5 21 -16 21 C-14.78747347 27.5349325 -14.78747347 27.5349325 -10.9375 32.1875 C-4.84116573 33.87372012 0.1924543 33.32301828 6 31 C6.66 32.65 7.32 34.3 8 36 C1.75212674 39.25975996 -4.11381265 40.19832351 -11.0546875 38.49609375 C-16.12249491 36.59294719 -18.77646939 33.54015595 -21.078125 28.76171875 C-23.07738933 22.77239722 -23.21932191 15.41724124 -21.08984375 9.44921875 C-16.12601076 0.97399265 -9.51500733 -1.373446 0 0 Z " fill="#F3F3F3" transform="translate(1296,1475)"/>
<path d="M0 0 C9.9 0 19.8 0 30 0 C30 1.98 30 3.96 30 6 C22.41 6 14.82 6 7 6 C7 11.28 7 16.56 7 22 C13.27 22 19.54 22 26 22 C26 23.65 26 25.3 26 27 C19.73 27 13.46 27 7 27 C7 33.27 7 39.54 7 46 C14.92 46 22.84 46 31 46 C31 47.98 31 49.96 31 52 C20.77 52 10.54 52 0 52 C0 34.84 0 17.68 0 0 Z " fill="#EAEAEA" transform="translate(923,1462)"/>
<path d="M0 0 C2.46964251 1.46282299 3.13111239 2.62104694 4.13671875 5.265625 C2.81671875 6.255625 1.49671875 7.245625 0.13671875 8.265625 C-0.76046875 7.5540625 -0.76046875 7.5540625 -1.67578125 6.828125 C-5.76587851 3.90662696 -9.98848716 3.74577774 -14.86328125 4.265625 C-17.4619744 5.12987061 -17.4619744 5.12987061 -18.86328125 7.265625 C-19.86386485 10.67862458 -19.86386485 10.67862458 -18.86328125 14.265625 C-15.77958331 17.30552041 -11.66057811 18.88426489 -7.80078125 20.73046875 C-6.74890625 21.23707031 -5.69703125 21.74367188 -4.61328125 22.265625 C-3.618125 22.719375 -2.62296875 23.173125 -1.59765625 23.640625 C2.05473508 25.81118899 4.24457664 28.48134077 6.13671875 32.265625 C6.60665046 37.05892843 6.18287566 40.57771438 3.5078125 44.6875 C0.06648685 48.64845601 -3.8145424 49.96472466 -8.921875 50.71484375 C-17.14830073 51.15087338 -22.34351628 49.21063861 -28.86328125 44.265625 C-28.20328125 42.615625 -27.54328125 40.965625 -26.86328125 39.265625 C-24.32889551 39.73495569 -22.76363575 40.33245621 -20.59765625 41.78515625 C-17.41523838 43.50820821 -15.39645846 43.66789942 -11.80078125 43.640625 C-10.26744141 43.65222656 -10.26744141 43.65222656 -8.703125 43.6640625 C-5.50434407 43.21526518 -4.11016581 42.56550212 -1.86328125 40.265625 C-1.27994792 36.765625 -1.27994792 36.765625 -1.86328125 33.265625 C-3.77412701 30.91309782 -5.75176905 29.65865198 -8.48046875 28.3984375 C-9.17011719 28.06972656 -9.85976562 27.74101563 -10.5703125 27.40234375 C-12.00621986 26.73225365 -13.44370719 26.065538 -14.8828125 25.40234375 C-19.33639992 23.27092482 -22.61598498 21.10558371 -25.86328125 17.265625 C-27.48040562 12.41425189 -27.56012798 8.74642431 -25.36328125 4.078125 C-17.95678237 -4.25418624 -9.82417702 -3.79125974 0 0 Z " fill="#F2F2F2" transform="translate(1260.86328125,1463.734375)"/>
<path d="M0 0 C2.31 0 4.62 0 7 0 C7 12.54 7 25.08 7 38 C5.02 38 3.04 38 1 38 C0.67 36.68 0.34 35.36 0 34 C-0.94875 34.825 -1.8975 35.65 -2.875 36.5 C-6.77004933 39.27086843 -9.96734272 39.73337548 -14.69140625 39.49609375 C-18.29087635 38.72260356 -19.89483547 36.92006693 -22 34 C-23.15927528 30.52217417 -23.11313066 27.81196743 -23.09765625 24.14453125 C-23.0962413 23.48289474 -23.09482635 22.82125824 -23.09336853 22.13957214 C-23.08777996 20.03050172 -23.07522965 17.92153823 -23.0625 15.8125 C-23.05748352 14.38086091 -23.05292087 12.94922015 -23.04882812 11.51757812 C-23.0378143 8.01168412 -23.02055755 4.5058525 -23 1 C-21.02 1 -19.04 1 -17 1 C-16.98541748 1.82725586 -16.97083496 2.65451172 -16.95581055 3.50683594 C-16.8813414 7.25502881 -16.7846754 11.00232997 -16.6875 14.75 C-16.66494141 16.05195312 -16.64238281 17.35390625 -16.61914062 18.6953125 C-16.58369141 19.94570312 -16.54824219 21.19609375 -16.51171875 22.484375 C-16.48553467 23.63647461 -16.45935059 24.78857422 -16.43237305 25.97558594 C-15.96366361 29.25417011 -15.34968865 30.69522317 -13 33 C-8.86910185 33.5388128 -5.66355624 32.98878767 -2 31 C-0.8992924 27.6978772 -0.79372928 25.05916721 -0.68359375 21.58203125 C-0.64169922 20.32841797 -0.59980469 19.07480469 -0.55664062 17.78320312 C-0.51732422 16.47287109 -0.47800781 15.16253906 -0.4375 13.8125 C-0.39429008 12.47720022 -0.350675 11.14191348 -0.30664062 9.80664062 C-0.20043498 6.53786703 -0.09839003 3.26901667 0 0 Z " fill="#F1F1F1" transform="translate(1073,1475)"/>
<path d="M0 0 C3.26433057 0.93266588 4.48805589 2.76068272 6.16015625 5.6171875 C8.24209587 9.78106673 7.48699094 15.07121414 7.16015625 19.6171875 C5.89475452 23.41339268 4.92530145 24.9967995 1.84765625 27.4921875 C-1.39001853 28.84749322 -3.3607415 29.12455658 -6.83984375 28.6171875 C-10.85644051 26.15245767 -12.40888576 24.03669491 -13.83984375 19.6171875 C-14.45018692 14.34410643 -15.00901347 8.61891638 -12.02734375 3.9921875 C-7.968924 -0.4140968 -5.63319392 -0.75109252 0 0 Z " fill="#030303" transform="translate(745.83984375,1480.3828125)"/>
<path d="M0 0 C3 2 3 2 3.43579102 4.07543945 C3.50951549 6.82227066 3.55697844 9.56460132 3.5625 12.3125 C3.59923828 13.26318359 3.63597656 14.21386719 3.67382812 15.19335938 C3.7165795 21.9908277 3.7165795 21.9908277 1.74975586 24.76074219 C-0.95636677 27.13066111 -3.02076299 28.00364263 -6.5625 28.625 C-10.9273509 27.83139075 -12.30229189 26.46848186 -15 23 C-17.55235909 18.62452728 -17.55779556 13.93300444 -17 9 C-13.85487861 0.22676666 -8.74564508 -2.32562098 0 0 Z " fill="#040404" transform="translate(846,1481)"/>
<path d="M0 0 C1.60869594 0.69885971 3.17115538 1.5027412 4.71875 2.328125 C4.05875 3.648125 3.39875 4.968125 2.71875 6.328125 C2.079375 6.163125 1.44 5.998125 0.78125 5.828125 C-3.23205982 5.17289074 -7.22184212 5.04295998 -11.28125 5.328125 C-12.63743499 6.45346605 -12.63743499 6.45346605 -12.34375 9.390625 C-12.323125 10.36 -12.3025 11.329375 -12.28125 12.328125 C-11.14945313 12.87082031 -10.01765625 13.41351562 -8.8515625 13.97265625 C-7.3695839 14.69488633 -5.88782437 15.41756605 -4.40625 16.140625 C-3.65988281 16.49705078 -2.91351562 16.85347656 -2.14453125 17.22070312 C-1.42910156 17.57197266 -0.71367188 17.92324219 0.0234375 18.28515625 C0.68327637 18.60460205 1.34311523 18.92404785 2.02294922 19.25317383 C3.71875 20.328125 3.71875 20.328125 5.71875 23.328125 C6.48454737 30.00150205 6.48454737 30.00150205 4.66796875 33.1484375 C2.89126621 35.31821582 1.24366118 37.06566941 -1.28125 38.328125 C-9.02925115 38.98914328 -14.93416784 39.05153498 -21.28125 34.328125 C-20.62125 32.678125 -19.96125 31.028125 -19.28125 29.328125 C-18.4975 29.823125 -17.71375 30.318125 -16.90625 30.828125 C-12.33820449 32.71835073 -8.17860063 33.00635521 -3.28125 32.328125 C-1.07267762 30.50026228 -1.07267762 30.50026228 -0.84375 27.890625 C-1.01027972 25.20429534 -1.01027972 25.20429534 -3.15625 23.828125 C-4.99829527 22.94394327 -6.84437336 22.06794199 -8.69921875 21.2109375 C-17.85037398 16.85839395 -17.85037398 16.85839395 -20.28125 12.328125 C-20.87646377 9.21978641 -20.93637336 7.36761964 -19.22265625 4.6484375 C-14.16867777 -1.62029546 -7.64570586 -2.25181748 0 0 Z " fill="#F1F1F1" transform="translate(1110.28125,1475.671875)"/>
<path d="M0 0 C4.29973936 -1.05299739 4.29973936 -1.05299739 7 0 C9.95934488 3.80487198 14 9.01803234 14 14 C14.66 14 15.32 14 16 14 C16.1134375 13.43667969 16.226875 12.87335938 16.34375 12.29296875 C17.08313868 9.70950948 18.17291664 7.64646929 19.5 5.3125 C19.9434375 4.52488281 20.386875 3.73726562 20.84375 2.92578125 C22 1 22 1 23 0 C24.99958364 -0.04080783 27.00045254 -0.04254356 29 0 C27.22424826 4.98472444 24.40807725 8.89403146 21.36328125 13.18359375 C19.61986745 16.78531682 19.78902065 18.20496236 21 22 C22.35672572 24.5565128 23.92534255 26.9282171 25.5625 29.3125 C30 35.91824734 30 35.91824734 30 37 C26.77734375 37.3984375 26.77734375 37.3984375 23 37 C21.06358828 34.79317444 19.89811713 33.15227553 18.5625 30.625 C18.21251953 30.02171875 17.86253906 29.4184375 17.50195312 28.796875 C15 24.39030394 15 24.39030394 15 22 C14.34 22 13.68 22 13 22 C12.72671875 22.71542969 12.4534375 23.43085937 12.171875 24.16796875 C10.2757031 28.75038417 8.13685535 33.13415715 5 37 C1.625 37.625 1.625 37.625 -1 37 C0.72736866 32.11035854 3.46067973 27.994129 6.34179688 23.72851562 C8.39546508 20.61087819 8.39546508 20.61087819 8.9921875 17.01171875 C7.50844385 14.00334088 5.75540084 11.1881937 3.9375 8.375 C0 2.26346154 0 2.26346154 0 0 Z " fill="#F4F4F4" transform="translate(958,1476)"/>
<path d="M0 0 C2.31 0 4.62 0 7 0 C10.3 9.9 13.6 19.8 17 30 C20.3 20.1 23.6 10.2 27 0 C28.98 0 30.96 0 33 0 C31.45487455 8.16074878 28.71956431 15.7760743 25.875 23.5625 C25.40183891 24.87026016 24.92917879 26.1782017 24.45703125 27.48632812 C23.3095861 30.65936521 22.15712972 33.83048462 21 37 C18.36 37 15.72 37 13 37 C9.89083961 29.40078317 7.0302699 21.72498445 4.25 14 C3.83878906 12.86949219 3.42757813 11.73898437 3.00390625 10.57421875 C2.61589844 9.49785156 2.22789063 8.42148438 1.828125 7.3125 C1.4765332 6.33925781 1.12494141 5.36601563 0.76269531 4.36328125 C0 2 0 2 0 0 Z " fill="#F1F1F1" transform="translate(1339,1476)"/>
<path d="M0 0 C2.31 0 4.62 0 7 0 C10.3 9.57 13.6 19.14 17 29 C19.60438399 22.48904003 22.04412334 16.09031848 24.1875 9.4375 C26.86702128 1.13297872 26.86702128 1.13297872 28 0 C29.99958364 -0.04080783 32.00045254 -0.04254356 34 0 C31.70800957 7.94261966 29.08430333 15.75358863 26.375 23.5625 C25.96765625 24.74908203 25.5603125 25.93566406 25.140625 27.15820312 C24.75132813 28.28291016 24.36203125 29.40761719 23.9609375 30.56640625 C23.60821777 31.58677979 23.25549805 32.60715332 22.89208984 33.65844727 C22 36 22 36 21 37 C18.32941149 37.14115161 15.67567762 37.04247107 13 37 C11.14657632 31.89208871 9.29521717 26.78343585 7.44580078 21.67407227 C6.81584011 19.93460677 6.18530723 18.19534839 5.55419922 16.45629883 C4.64922384 13.96228896 3.74628241 11.46755105 2.84375 8.97265625 C2.55939087 8.19036148 2.27503174 7.40806671 1.98205566 6.60206604 C0 1.11387171 0 1.11387171 0 0 Z " fill="#F3F3F3" transform="translate(1139,1476)"/>
<path d="M0 0 C1.98 0 3.96 0 6 0 C10.15926224 9.81689224 13.50978766 19.9320798 17 30 C20.3 20.1 23.6 10.2 27 0 C28.98 0 30.96 0 33 0 C32.36691342 4.68043112 31.10458094 8.9463675 29.49609375 13.3671875 C29.2533522 14.04677521 29.01061066 14.72636292 28.76051331 15.42654419 C27.9909039 17.57775984 27.21432677 19.72638147 26.4375 21.875 C25.91164544 23.3409795 25.3862501 24.80712381 24.86132812 26.2734375 C23.57952211 29.85088639 22.29146487 33.42602722 21 37 C18.36 37 15.72 37 13 37 C9.60067951 29.25347158 6.60099467 21.3771611 3.6875 13.4375 C3.32591797 12.46151855 2.96433594 11.48553711 2.59179688 10.47998047 C2.25599609 9.55717285 1.92019531 8.63436523 1.57421875 7.68359375 C1.11921997 6.43920532 1.11921997 6.43920532 0.6550293 5.16967773 C0 3 0 3 0 0 Z " fill="#F3F3F3" transform="translate(765,1476)"/>
<path d="M0 0 C3.6875 1.5 3.6875 1.5 6 3 C5.34 4.65 4.68 6.3 4 8 C3.13375 7.67 2.2675 7.34 1.375 7 C-2.74967109 5.77787523 -6.04663917 5.3860866 -10.1875 6.6875 C-12.65291621 8.4728014 -13.62780787 10.28602443 -15 13 C-15.86526396 19.30285413 -15.88952742 25.72135564 -12 31 C-8.97272277 32.93409378 -7.02576696 33.18859359 -3.5 32.6875 C-2.7471875 32.58824219 -1.994375 32.48898437 -1.21875 32.38671875 C0.88821634 32.01948342 2.93378882 31.54942434 5 31 C5.66 32.32 6.32 33.64 7 35 C1.10344895 39.19310297 -3.82104291 40.0255653 -11 39 C-15.28915607 37.66506929 -18.06180752 35.3278808 -20.375 31.5 C-23.20154141 25.41206466 -23.82240082 19.6808516 -23 13 C-18.69668173 2.23277628 -10.94041445 -0.92324173 0 0 Z " fill="#F4F4F4" transform="translate(1015,1475)"/>
<path d="M0 0 C0.8971875 0.7425 0.8971875 0.7425 1.8125 1.5 C1.4375 3.4375 1.4375 3.4375 0.8125 5.5 C-0.1775 5.995 -0.1775 5.995 -1.1875 6.5 C-1.744375 6.190625 -2.30125 5.88125 -2.875 5.5625 C-6.20605286 4.03201625 -8.5623838 4.05481029 -12.1875 4.5 C-15.35007314 7.03005851 -17.96056268 9.59610852 -19.1875 13.5 C-19.6755183 19.4538233 -19.06660061 23.2559239 -16.1875 28.5 C-13.59527423 31.47625922 -12.26405965 31.49392384 -8.25 31.8125 C-4.88075673 31.69284463 -2.2313181 31.02190905 0.8125 29.5 C1.4725 30.82 2.1325 32.14 2.8125 33.5 C-2.8343667 37.97854945 -8.15952468 38.21488001 -15.1875 37.5 C-20.10756067 35.17415314 -22.49981435 32.17856392 -25.1875 27.5 C-27.1955591 21.4758227 -27.37078351 13.97556366 -25.31640625 7.94140625 C-19.98261605 -1.30965938 -9.83471485 -4.62810111 0 0 Z " fill="#F6F6F6" transform="translate(1423.1875,1476.5)"/>
<path d="M0 0 C2.31 0 4.62 0 7 0 C7 16.83 7 33.66 7 51 C7.99 51 8.98 51 10 51 C10.33 52.65 10.66 54.3 11 56 C5.04296875 56.390625 5.04296875 56.390625 3 56 C0.13361692 52.97071743 -0.37053196 50.88638937 -0.34057617 46.77246094 C-0.34034958 45.73168396 -0.34012299 44.69090698 -0.33988953 43.61859131 C-0.32440567 42.50179993 -0.30892181 41.38500854 -0.29296875 40.234375 C-0.28872391 39.08584045 -0.28447906 37.93730591 -0.28010559 36.75396729 C-0.26331333 33.0857397 -0.22565898 29.41806153 -0.1875 25.75 C-0.17245392 23.26302877 -0.15876539 20.77604892 -0.14648438 18.2890625 C-0.11340796 12.19252088 -0.06320256 6.09629969 0 0 Z " fill="#E9E9E9" transform="translate(1030,1458)"/>
<path d="M0 0 C2.206875 -0.061875 4.41375 -0.12375 6.6875 -0.1875 C8.54955078 -0.23970703 8.54955078 -0.23970703 10.44921875 -0.29296875 C14.49607131 0.04092998 17.11242948 1.11242948 20 4 C20.43839055 7.38186995 20.48172213 10.62270898 20 14 C17.80977082 16.82424288 16.16982793 18.41508603 13 20 C8.66396021 20.1393329 4.33919329 20.04254111 0 20 C0 13.4 0 6.8 0 0 Z " fill="#040404" transform="translate(665,1468)"/>
<path d="M0 0 C0.66 0.33 1.32 0.66 2 1 C1.45811035 1.8504187 1.45811035 1.8504187 0.90527344 2.71801758 C-0.1867678 4.43213601 -1.27853866 6.14642671 -2.37011719 7.86083984 C-3.63034679 9.83956398 -4.89142394 11.81774856 -6.15332031 13.79541016 C-9.30729612 18.74383471 -12.44406901 23.70098869 -15.53125 28.69140625 C-16.07491211 29.56627686 -16.61857422 30.44114746 -17.17871094 31.3425293 C-18.21388482 33.01093493 -19.24333677 34.68290647 -20.26660156 36.35864258 C-20.7303418 37.1039624 -21.19408203 37.84928223 -21.671875 38.6171875 C-22.0750293 39.27315918 -22.47818359 39.92913086 -22.89355469 40.60498047 C-23.44124512 41.29551514 -23.44124512 41.29551514 -24 42 C-24.66 42 -25.32 42 -26 42 C-27.44074715 40.217871 -28.80510649 38.37339724 -30.125 36.5 C-30.84945312 35.4790625 -31.57390625 34.458125 -32.3203125 33.40625 C-32.87460937 32.6121875 -33.42890625 31.818125 -34 31 C-25.9048379 22.81652705 -17.39072978 15.22910023 -8.42578125 8.015625 C-5.40975279 5.50955304 -2.69715142 2.84294339 0 0 Z " fill="#F5F5F5" transform="translate(982,840)"/>
<path d="M0 0 C4.95 0 9.9 0 15 0 C15 7.92 15 15.84 15 24 C10.05 24 5.1 24 0 24 C0 16.08 0 8.16 0 0 Z " fill="#FBFBFB" transform="translate(359,1247)"/>
<path d="M0 0 C2.05078125 0.03255208 4.1015625 0.06510417 6.15234375 0.09765625 C6.19506475 1.7637753 6.19298207 3.4314851 6.15234375 5.09765625 C4.26592772 6.98407228 0.94626395 6.82234573 -1.62109375 7.20703125 C-4.76330189 8.46391451 -5.36413094 10.09758061 -6.84765625 13.09765625 C-7.34471399 15.98799074 -7.34471399 15.98799074 -7.359375 19.0546875 C-7.39482422 20.16650391 -7.43027344 21.27832031 -7.46679688 22.42382812 C-7.48935547 23.57431641 -7.51191406 24.72480469 -7.53515625 25.91015625 C-7.56931641 27.07998047 -7.60347656 28.24980469 -7.63867188 29.45507812 C-7.72097941 32.33584179 -7.79018803 35.21630763 -7.84765625 38.09765625 C-9.82765625 38.09765625 -11.80765625 38.09765625 -13.84765625 38.09765625 C-13.84765625 25.88765625 -13.84765625 13.67765625 -13.84765625 1.09765625 C-12.19765625 1.09765625 -10.54765625 1.09765625 -8.84765625 1.09765625 C-8.51765625 2.74765625 -8.18765625 4.39765625 -7.84765625 6.09765625 C-7.04328125 5.29328125 -6.23890625 4.48890625 -5.41015625 3.66015625 C-1.84765625 0.09765625 -1.84765625 0.09765625 0 0 Z " fill="#F7F7F7" transform="translate(715.84765625,1474.90234375)"/>
<path d="M0 0 C0 1.98 0 3.96 0 6 C-1.216875 6.04125 -2.43375 6.0825 -3.6875 6.125 C-7.01311761 6.2377328 -8.09763681 7.08080288 -10.71875 9.25 C-14.42992775 14.04798689 -13.7830623 20.07904467 -13.8125 25.875 C-13.83763672 27.0403125 -13.86277344 28.205625 -13.88867188 29.40625 C-13.94737931 32.27117296 -13.98378061 35.13457361 -14 38 C-15.98 38 -17.96 38 -20 38 C-20 25.79 -20 13.58 -20 1 C-18.35 1 -16.7 1 -15 1 C-15 2.98 -15 4.96 -15 7 C-14.34 7 -13.68 7 -13 7 C-12.7525 6.401875 -12.505 5.80375 -12.25 5.1875 C-9.20321486 -0.144374 -5.88396436 -0.33945948 0 0 Z " fill="#FAFAFA" transform="translate(1335,1475)"/>
<path d="M0 0 C2.31 0 4.62 0 7 0 C7 12.87 7 25.74 7 39 C4.69 39 2.38 39 0 39 C0 26.13 0 13.26 0 0 Z " fill="#E1E1E1" transform="translate(1380,1475)"/>
<path d="M0 0 C2.31 0 4.62 0 7 0 C7 12.87 7 25.74 7 39 C4.69 39 2.38 39 0 39 C0 26.13 0 13.26 0 0 Z " fill="#E1E1E1" transform="translate(1125,1475)"/>
<path d="M0 0 C1.98 0 3.96 0 6 0 C6 12.54 6 25.08 6 38 C4.02 38 2.04 38 0 38 C0 25.46 0 12.92 0 0 Z " fill="#F7F7F7" transform="translate(806,1475)"/>
<path d="M0 0 C2.48114717 0.63711193 3.51024785 1.35902613 5.22265625 3.2421875 C7.16015625 6.5546875 7.16015625 6.5546875 7.16015625 11.5546875 C0.56015625 11.5546875 -6.03984375 11.5546875 -12.83984375 11.5546875 C-11.83984375 5.5546875 -11.83984375 5.5546875 -9.83984375 2.6796875 C-6.31085901 0.17998998 -4.24942864 -0.24120296 0 0 Z " fill="#070707" transform="translate(1292.83984375,1479.4453125)"/>
<path d="M0 0 C2.4375 1.5625 2.4375 1.5625 4 4 C4.33 6.31 4.66 8.62 5 11 C-1.6 11 -8.2 11 -15 11 C-14.01221524 6.06107618 -13.26400276 4.56073029 -10 1 C-6.79468579 -0.6026571 -3.47781792 -0.48207377 0 0 Z " fill="#060606" transform="translate(887,1480)"/>
<path d="M0 0 C3.954949 1.07992278 5.11385579 3.09133006 7.16015625 6.58984375 C7.16015625 8.23984375 7.16015625 9.88984375 7.16015625 11.58984375 C0.56015625 11.58984375 -6.03984375 11.58984375 -12.83984375 11.58984375 C-11.24091179 3.59518393 -8.35611452 -0.57195442 0 0 Z " fill="#050505" transform="translate(1449.83984375,1479.41015625)"/>
<path d="M0 0 C2.49740331 1.77619615 3.35501911 3.27550041 5 6 C5 7.65 5 9.3 5 11 C-1.6 11 -8.2 11 -15 11 C-14.01221524 6.06107618 -13.26400276 4.56073029 -10 1 C-6.75785852 -0.62107074 -3.49203811 -0.70775533 0 0 Z " fill="#040404" transform="translate(1199,1480)"/>
<path d="M0 0 C2.09375 0.4140625 2.09375 0.4140625 4.65625 1.9765625 C6.09375 4.4140625 6.09375 4.4140625 6.09375 11.4140625 C-0.17625 11.4140625 -6.44625 11.4140625 -12.90625 11.4140625 C-11.90625 5.4140625 -11.90625 5.4140625 -9.90625 2.5390625 C-6.33939074 0.01253719 -4.2791149 -0.27101061 0 0 Z " fill="#050505" transform="translate(619.90625,1479.5859375)"/>
<path d="M0 0 C7.24608745 0.7238468 14.3853963 1.83819599 21.5625 3.0625 C22.66658203 3.24876953 23.77066406 3.43503906 24.90820312 3.62695312 C27.60585532 4.0824009 30.30309874 4.54013024 33 5 C31.125 10.75 31.125 10.75 30 13 C23.12052968 10.8197371 16.54944102 8.19745965 9.9375 5.3125 C8.49600586 4.68891602 8.49600586 4.68891602 7.02539062 4.05273438 C4.68212514 3.03848513 2.34039113 2.02085998 0 1 C0 0.67 0 0.34 0 0 Z " fill="#F1F1F1" transform="translate(994,840)"/>
<path d="M0 0 C0.8696403 3.24606096 1.71796913 6.49732408 2.5625 9.75 C2.80935547 10.67039062 3.05621094 11.59078125 3.31054688 12.5390625 C3.53935547 13.42851563 3.76816406 14.31796875 4.00390625 15.234375 C4.21861572 16.05131836 4.4333252 16.86826172 4.65454102 17.70996094 C5.02133876 20.14145409 4.76494053 21.68425298 4 24 C-0.7367351 17.71531225 -5.46693588 11.43402649 -10 5 C-7.15820531 1.97593277 -4.29899072 0 0 0 Z " fill="#EFEFEF" transform="translate(871,953)"/>
<path d="M0 0 C2.875 -0.125 2.875 -0.125 6 0 C6.66 0.66 7.32 1.32 8 2 C7.625 4.625 7.625 4.625 7 7 C4.125 7.625 4.125 7.625 1 8 C0.34 7.34 -0.32 6.68 -1 6 C-0.625 2.875 -0.625 2.875 0 0 Z " fill="#EAEAEA" transform="translate(1125,1460)"/>
<path d="M0 0 C3.0625 0.1875 3.0625 0.1875 5.0625 2.1875 C4.6875 4.8125 4.6875 4.8125 4.0625 7.1875 C1.1875 7.8125 1.1875 7.8125 -1.9375 8.1875 C-3.9375 6.1875 -3.9375 6.1875 -4.125 3.625 C-3.8509967 0.06295712 -3.62735131 0.23153306 0 0 Z " fill="#EAEAEA" transform="translate(808.9375,1459.8125)"/>
<path d="M0 0 C0.94875 0.04125 1.8975 0.0825 2.875 0.125 C3.205 2.105 3.535 4.085 3.875 6.125 C0.875 8.125 0.875 8.125 -1.8125 7.75 C-2.575625 7.54375 -3.33875 7.3375 -4.125 7.125 C-4.75 4.75 -4.75 4.75 -5.125 2.125 C-3.125 0.125 -3.125 0.125 0 0 Z " fill="#ECECEC" transform="translate(1384.125,1459.875)"/>
<path d="M0 0 C2.97 0.33 5.94 0.66 9 1 C8.01 2.485 8.01 2.485 7 4 C4.69 3.01 2.38 2.02 0 1 C0 0.67 0 0.34 0 0 Z " fill="#CDCDCD" transform="translate(994,840)"/>
</svg>
